<mxfile host="app.diagrams.net" modified="2022-06-15T17:43:46.966Z" agent="5.0 (Macintosh; Intel Mac OS X 10_15_7) AppleWebKit/537.36 (KHTML, like Gecko) Chrome/101.0.0.0 Safari/537.36" etag="IWTk1_nfm-SANRF_wBBU" version="20.0.1" type="github" pages="4">
  <diagram id="Q4apKeaZOW8D5BqgM2T3" name="LEMT-IIB">
    <mxGraphModel dx="2047" dy="1805" grid="1" gridSize="10" guides="1" tooltips="1" connect="1" arrows="1" fold="1" page="1" pageScale="1" pageWidth="850" pageHeight="1100" math="0" shadow="0">
      <root>
        <mxCell id="0" />
        <mxCell id="1" parent="0" />
        <mxCell id="JCkuHaJwxj3CZc9LXlBO-58" value="Service" style="rounded=1;whiteSpace=wrap;html=1;absoluteArcSize=1;arcSize=14;strokeWidth=2;fontColor=default;fillColor=none;fontStyle=1;labelPosition=center;verticalLabelPosition=bottom;align=center;verticalAlign=top;" parent="1" vertex="1">
          <mxGeometry x="1050" y="16" width="220" height="224" as="geometry" />
        </mxCell>
        <mxCell id="JCkuHaJwxj3CZc9LXlBO-41" value="Log Importer" style="rounded=1;whiteSpace=wrap;html=1;absoluteArcSize=1;arcSize=14;strokeWidth=2;fontColor=default;fillColor=none;labelPosition=center;verticalLabelPosition=bottom;align=center;verticalAlign=top;fontStyle=1" parent="1" vertex="1">
          <mxGeometry x="-20" y="-30" width="500" height="430" as="geometry" />
        </mxCell>
        <mxCell id="JCkuHaJwxj3CZc9LXlBO-47" value="Simplifier" style="rounded=1;whiteSpace=wrap;html=1;absoluteArcSize=1;arcSize=14;strokeWidth=2;fontColor=default;fillColor=none;labelPosition=center;verticalLabelPosition=bottom;align=center;verticalAlign=top;fontStyle=1" parent="1" vertex="1">
          <mxGeometry x="620" y="150" width="220" height="220" as="geometry" />
        </mxCell>
        <mxCell id="JCkuHaJwxj3CZc9LXlBO-8" value="" style="group" parent="1" vertex="1" connectable="0">
          <mxGeometry y="30" width="121" height="80" as="geometry" />
        </mxCell>
        <mxCell id="JCkuHaJwxj3CZc9LXlBO-6" value="Server1" style="image;html=1;image=img/lib/clip_art/computers/Server_Rack_128x128.png" parent="JCkuHaJwxj3CZc9LXlBO-8" vertex="1">
          <mxGeometry width="80" height="80" as="geometry" />
        </mxCell>
        <mxCell id="JCkuHaJwxj3CZc9LXlBO-7" value="Logs&lt;br&gt;" style="sketch=0;pointerEvents=1;shadow=0;dashed=0;html=1;strokeColor=none;labelPosition=center;verticalLabelPosition=bottom;verticalAlign=top;align=center;fillColor=#505050;shape=mxgraph.mscae.oms.log_management" parent="JCkuHaJwxj3CZc9LXlBO-8" vertex="1">
          <mxGeometry x="80" y="20" width="41" height="50" as="geometry" />
        </mxCell>
        <mxCell id="JCkuHaJwxj3CZc9LXlBO-9" value="" style="group" parent="1" vertex="1" connectable="0">
          <mxGeometry y="150" width="121" height="80" as="geometry" />
        </mxCell>
        <mxCell id="JCkuHaJwxj3CZc9LXlBO-10" value="Server2" style="image;html=1;image=img/lib/clip_art/computers/Server_Rack_128x128.png" parent="JCkuHaJwxj3CZc9LXlBO-9" vertex="1">
          <mxGeometry width="80" height="80" as="geometry" />
        </mxCell>
        <mxCell id="JCkuHaJwxj3CZc9LXlBO-11" value="Logs&lt;br&gt;" style="sketch=0;pointerEvents=1;shadow=0;dashed=0;html=1;strokeColor=none;labelPosition=center;verticalLabelPosition=bottom;verticalAlign=top;align=center;fillColor=#505050;shape=mxgraph.mscae.oms.log_management" parent="JCkuHaJwxj3CZc9LXlBO-9" vertex="1">
          <mxGeometry x="80" y="20" width="41" height="50" as="geometry" />
        </mxCell>
        <mxCell id="JCkuHaJwxj3CZc9LXlBO-12" value="" style="group" parent="1" vertex="1" connectable="0">
          <mxGeometry y="270" width="121" height="80" as="geometry" />
        </mxCell>
        <mxCell id="JCkuHaJwxj3CZc9LXlBO-13" value="Server3" style="image;html=1;image=img/lib/clip_art/computers/Server_Rack_128x128.png" parent="JCkuHaJwxj3CZc9LXlBO-12" vertex="1">
          <mxGeometry width="80" height="80" as="geometry" />
        </mxCell>
        <mxCell id="JCkuHaJwxj3CZc9LXlBO-14" value="Logs&lt;br&gt;" style="sketch=0;pointerEvents=1;shadow=0;dashed=0;html=1;strokeColor=none;labelPosition=center;verticalLabelPosition=bottom;verticalAlign=top;align=center;fillColor=#505050;shape=mxgraph.mscae.oms.log_management" parent="JCkuHaJwxj3CZc9LXlBO-12" vertex="1">
          <mxGeometry x="80" y="20" width="41" height="50" as="geometry" />
        </mxCell>
        <mxCell id="JCkuHaJwxj3CZc9LXlBO-17" style="edgeStyle=orthogonalEdgeStyle;rounded=0;orthogonalLoop=1;jettySize=auto;html=1;entryX=1;entryY=0.5;entryDx=0;entryDy=0;entryPerimeter=0;" parent="1" source="JCkuHaJwxj3CZc9LXlBO-15" target="JCkuHaJwxj3CZc9LXlBO-7" edge="1">
          <mxGeometry relative="1" as="geometry" />
        </mxCell>
        <mxCell id="JCkuHaJwxj3CZc9LXlBO-18" style="edgeStyle=orthogonalEdgeStyle;rounded=0;orthogonalLoop=1;jettySize=auto;html=1;entryX=1;entryY=0.5;entryDx=0;entryDy=0;entryPerimeter=0;" parent="1" source="JCkuHaJwxj3CZc9LXlBO-15" target="JCkuHaJwxj3CZc9LXlBO-11" edge="1">
          <mxGeometry relative="1" as="geometry" />
        </mxCell>
        <mxCell id="JCkuHaJwxj3CZc9LXlBO-19" style="edgeStyle=orthogonalEdgeStyle;rounded=0;orthogonalLoop=1;jettySize=auto;html=1;entryX=1;entryY=0.5;entryDx=0;entryDy=0;entryPerimeter=0;startArrow=none;" parent="1" source="JCkuHaJwxj3CZc9LXlBO-21" target="JCkuHaJwxj3CZc9LXlBO-14" edge="1">
          <mxGeometry relative="1" as="geometry">
            <Array as="points">
              <mxPoint x="200" y="240" />
              <mxPoint x="200" y="315" />
            </Array>
          </mxGeometry>
        </mxCell>
        <mxCell id="JCkuHaJwxj3CZc9LXlBO-23" value=".log files" style="edgeStyle=orthogonalEdgeStyle;rounded=0;orthogonalLoop=1;jettySize=auto;html=1;fontStyle=1" parent="1" source="JCkuHaJwxj3CZc9LXlBO-15" target="JCkuHaJwxj3CZc9LXlBO-24" edge="1">
          <mxGeometry relative="1" as="geometry">
            <mxPoint x="470" y="240" as="targetPoint" />
          </mxGeometry>
        </mxCell>
        <mxCell id="JCkuHaJwxj3CZc9LXlBO-43" style="edgeStyle=orthogonalEdgeStyle;rounded=0;orthogonalLoop=1;jettySize=auto;html=1;entryX=0.5;entryY=0;entryDx=0;entryDy=0;fontColor=default;" parent="1" source="JCkuHaJwxj3CZc9LXlBO-15" target="JCkuHaJwxj3CZc9LXlBO-42" edge="1">
          <mxGeometry relative="1" as="geometry">
            <Array as="points">
              <mxPoint x="430" y="240" />
              <mxPoint x="430" y="170" />
              <mxPoint x="760" y="170" />
            </Array>
          </mxGeometry>
        </mxCell>
        <mxCell id="JCkuHaJwxj3CZc9LXlBO-68" style="edgeStyle=orthogonalEdgeStyle;rounded=0;orthogonalLoop=1;jettySize=auto;html=1;entryX=0.5;entryY=1;entryDx=0;entryDy=0;fontColor=default;startArrow=blockThin;startFill=1;endArrow=classic;endFill=1;" parent="1" source="JCkuHaJwxj3CZc9LXlBO-15" target="JCkuHaJwxj3CZc9LXlBO-40" edge="1">
          <mxGeometry relative="1" as="geometry" />
        </mxCell>
        <mxCell id="JCkuHaJwxj3CZc9LXlBO-15" value="LEMT-IIBLogsPuller.sh" style="shape=process;whiteSpace=wrap;html=1;backgroundOutline=1;fillColor=#d5e8d4;strokeColor=#82b366;" parent="1" vertex="1">
          <mxGeometry x="290" y="210" width="120" height="60" as="geometry" />
        </mxCell>
        <mxCell id="JCkuHaJwxj3CZc9LXlBO-21" value="SSHPASS&amp;nbsp;&lt;br&gt;(skrish04)" style="aspect=fixed;html=1;points=[];align=center;image;fontSize=12;image=img/lib/azure2/other/SSH_Keys.svg;" parent="1" vertex="1">
          <mxGeometry x="230" y="225" width="34" height="30" as="geometry" />
        </mxCell>
        <mxCell id="JCkuHaJwxj3CZc9LXlBO-22" value="" style="edgeStyle=orthogonalEdgeStyle;rounded=0;orthogonalLoop=1;jettySize=auto;html=1;entryX=1;entryY=0.5;entryDx=0;entryDy=0;entryPerimeter=0;endArrow=none;" parent="1" source="JCkuHaJwxj3CZc9LXlBO-15" target="JCkuHaJwxj3CZc9LXlBO-21" edge="1">
          <mxGeometry relative="1" as="geometry">
            <mxPoint x="290" y="240" as="sourcePoint" />
            <mxPoint x="121" y="315" as="targetPoint" />
          </mxGeometry>
        </mxCell>
        <mxCell id="JCkuHaJwxj3CZc9LXlBO-44" value=".log files" style="edgeStyle=orthogonalEdgeStyle;rounded=0;orthogonalLoop=1;jettySize=auto;html=1;entryX=0;entryY=0.5;entryDx=0;entryDy=0;fontColor=default;" parent="1" source="JCkuHaJwxj3CZc9LXlBO-24" target="JCkuHaJwxj3CZc9LXlBO-42" edge="1">
          <mxGeometry relative="1" as="geometry" />
        </mxCell>
        <mxCell id="JCkuHaJwxj3CZc9LXlBO-24" value="/nas/observatory&lt;br&gt;(IntakeLogs Folder)" style="fontColor=#0066CC;verticalAlign=top;verticalLabelPosition=bottom;labelPosition=center;align=center;html=1;outlineConnect=0;fillColor=#CCCCCC;strokeColor=#6881B3;gradientColor=none;gradientDirection=north;strokeWidth=2;shape=mxgraph.networks.nas_filer;" parent="1" vertex="1">
          <mxGeometry x="500" y="222.5" width="100" height="35" as="geometry" />
        </mxCell>
        <mxCell id="JCkuHaJwxj3CZc9LXlBO-27" value="" style="shape=image;html=1;verticalAlign=top;verticalLabelPosition=bottom;labelBackgroundColor=#ffffff;imageAspect=0;aspect=fixed;image=https://cdn1.iconfinder.com/data/icons/bootstrap-vol-3/16/filetype-sh-128.png" parent="1" vertex="1">
          <mxGeometry x="389" y="196" width="30" height="30" as="geometry" />
        </mxCell>
        <mxCell id="JCkuHaJwxj3CZc9LXlBO-38" value="Loop" style="ellipse;shape=umlControl;whiteSpace=wrap;html=1;fontColor=default;fillColor=none;labelPosition=center;verticalLabelPosition=bottom;align=center;verticalAlign=top;" parent="1" vertex="1">
          <mxGeometry x="300" y="175" width="100" height="115" as="geometry" />
        </mxCell>
        <mxCell id="JCkuHaJwxj3CZc9LXlBO-45" style="edgeStyle=orthogonalEdgeStyle;rounded=0;orthogonalLoop=1;jettySize=auto;html=1;fontColor=default;" parent="1" source="JCkuHaJwxj3CZc9LXlBO-42" target="JCkuHaJwxj3CZc9LXlBO-48" edge="1">
          <mxGeometry relative="1" as="geometry">
            <mxPoint x="730" y="480" as="targetPoint" />
            <Array as="points">
              <mxPoint x="880" y="240" />
              <mxPoint x="880" y="190" />
            </Array>
          </mxGeometry>
        </mxCell>
        <mxCell id="JCkuHaJwxj3CZc9LXlBO-46" value=".csv files" style="edgeLabel;html=1;align=center;verticalAlign=middle;resizable=0;points=[];fontColor=default;fontStyle=1" parent="JCkuHaJwxj3CZc9LXlBO-45" vertex="1" connectable="0">
          <mxGeometry x="-0.2759" y="2" relative="1" as="geometry">
            <mxPoint as="offset" />
          </mxGeometry>
        </mxCell>
        <mxCell id="JCkuHaJwxj3CZc9LXlBO-51" style="edgeStyle=orthogonalEdgeStyle;rounded=0;orthogonalLoop=1;jettySize=auto;html=1;fontColor=default;" parent="1" source="JCkuHaJwxj3CZc9LXlBO-42" target="JCkuHaJwxj3CZc9LXlBO-50" edge="1">
          <mxGeometry relative="1" as="geometry">
            <Array as="points">
              <mxPoint x="760" y="320" />
            </Array>
          </mxGeometry>
        </mxCell>
        <mxCell id="JCkuHaJwxj3CZc9LXlBO-52" value=".log files" style="edgeLabel;html=1;align=center;verticalAlign=middle;resizable=0;points=[];fontColor=default;fontStyle=1" parent="JCkuHaJwxj3CZc9LXlBO-51" vertex="1" connectable="0">
          <mxGeometry x="0.4727" y="2" relative="1" as="geometry">
            <mxPoint as="offset" />
          </mxGeometry>
        </mxCell>
        <mxCell id="JCkuHaJwxj3CZc9LXlBO-42" value="LEMT-LogSimplifier.py" style="shape=process;whiteSpace=wrap;html=1;backgroundOutline=1;fillColor=#d5e8d4;strokeColor=#82b366;" parent="1" vertex="1">
          <mxGeometry x="700" y="210" width="120" height="60" as="geometry" />
        </mxCell>
        <mxCell id="JCkuHaJwxj3CZc9LXlBO-48" value="/nas/observatory&lt;br&gt;(CSV Folder)" style="fontColor=#0066CC;verticalAlign=top;verticalLabelPosition=bottom;labelPosition=center;align=center;html=1;outlineConnect=0;fillColor=#CCCCCC;strokeColor=#6881B3;gradientColor=none;gradientDirection=north;strokeWidth=2;shape=mxgraph.networks.nas_filer;" parent="1" vertex="1">
          <mxGeometry x="920" y="161" width="100" height="35" as="geometry" />
        </mxCell>
        <mxCell id="JCkuHaJwxj3CZc9LXlBO-50" value="/nas/observatory&lt;br&gt;(ProcessedLogs Folder)" style="fontColor=#0066CC;verticalAlign=top;verticalLabelPosition=bottom;labelPosition=center;align=center;html=1;outlineConnect=0;fillColor=#CCCCCC;strokeColor=#6881B3;gradientColor=none;gradientDirection=north;strokeWidth=2;shape=mxgraph.networks.nas_filer;" parent="1" vertex="1">
          <mxGeometry x="920" y="290" width="100" height="35" as="geometry" />
        </mxCell>
        <mxCell id="JCkuHaJwxj3CZc9LXlBO-54" style="edgeStyle=orthogonalEdgeStyle;rounded=0;orthogonalLoop=1;jettySize=auto;html=1;entryX=1;entryY=0.5;entryDx=0;entryDy=0;entryPerimeter=0;fontColor=default;endArrow=classic;endFill=1;startArrow=block;startFill=1;" parent="1" source="JCkuHaJwxj3CZc9LXlBO-53" target="JCkuHaJwxj3CZc9LXlBO-48" edge="1">
          <mxGeometry relative="1" as="geometry" />
        </mxCell>
        <mxCell id="JCkuHaJwxj3CZc9LXlBO-55" value="API Calls" style="edgeLabel;html=1;align=center;verticalAlign=middle;resizable=0;points=[];fontColor=default;fontStyle=1" parent="JCkuHaJwxj3CZc9LXlBO-54" vertex="1" connectable="0">
          <mxGeometry x="-0.1211" relative="1" as="geometry">
            <mxPoint as="offset" />
          </mxGeometry>
        </mxCell>
        <mxCell id="JCkuHaJwxj3CZc9LXlBO-57" style="edgeStyle=orthogonalEdgeStyle;rounded=0;orthogonalLoop=1;jettySize=auto;html=1;fontColor=default;startArrow=none;startFill=0;endArrow=classic;endFill=1;entryX=0.5;entryY=1;entryDx=0;entryDy=0;entryPerimeter=0;dashed=1;" parent="1" source="JCkuHaJwxj3CZc9LXlBO-53" target="JCkuHaJwxj3CZc9LXlBO-56" edge="1">
          <mxGeometry relative="1" as="geometry">
            <Array as="points">
              <mxPoint x="1190" y="90" />
              <mxPoint x="1190" y="90" />
            </Array>
          </mxGeometry>
        </mxCell>
        <mxCell id="JCkuHaJwxj3CZc9LXlBO-53" value="LEMT-API.py" style="shape=process;whiteSpace=wrap;html=1;backgroundOutline=1;fillColor=#6d8764;strokeColor=#3A5431;fontColor=#ffffff;" parent="1" vertex="1">
          <mxGeometry x="1130" y="150" width="120" height="60" as="geometry" />
        </mxCell>
        <mxCell id="JCkuHaJwxj3CZc9LXlBO-56" value="/nas/observatory&lt;br&gt;(LEMT-Tool Logs)" style="fontColor=#0066CC;verticalAlign=bottom;verticalLabelPosition=top;labelPosition=center;align=center;html=1;outlineConnect=0;fillColor=#CCCCCC;strokeColor=#6881B3;gradientColor=none;gradientDirection=north;strokeWidth=2;shape=mxgraph.networks.nas_filer;" parent="1" vertex="1">
          <mxGeometry x="1140" y="70" width="100" height="35" as="geometry" />
        </mxCell>
        <mxCell id="JCkuHaJwxj3CZc9LXlBO-60" value="HTTP Calls" style="edgeStyle=orthogonalEdgeStyle;rounded=0;orthogonalLoop=1;jettySize=auto;html=1;entryX=0.786;entryY=1.007;entryDx=0;entryDy=0;entryPerimeter=0;fontColor=default;startArrow=blockThin;startFill=1;endArrow=classic;endFill=1;" parent="1" source="JCkuHaJwxj3CZc9LXlBO-59" target="JCkuHaJwxj3CZc9LXlBO-58" edge="1">
          <mxGeometry relative="1" as="geometry" />
        </mxCell>
        <mxCell id="JCkuHaJwxj3CZc9LXlBO-59" value="" style="verticalLabelPosition=bottom;html=1;verticalAlign=top;align=center;strokeColor=none;fillColor=#00BEF2;shape=mxgraph.azure.website_generic;pointerEvents=1;fontColor=default;" parent="1" vertex="1">
          <mxGeometry x="1133" y="390" width="178" height="130" as="geometry" />
        </mxCell>
        <mxCell id="JCkuHaJwxj3CZc9LXlBO-62" value="" style="shape=image;html=1;verticalAlign=top;verticalLabelPosition=bottom;labelBackgroundColor=#ffffff;imageAspect=0;aspect=fixed;image=https://cdn0.iconfinder.com/data/icons/phosphor-fill-vol-3/256/number-square-two-fill-128.png;fontColor=default;strokeWidth=1;fillColor=none;" parent="1" vertex="1">
          <mxGeometry x="1236" y="135" width="28" height="28" as="geometry" />
        </mxCell>
        <mxCell id="JCkuHaJwxj3CZc9LXlBO-64" value="" style="shape=image;html=1;verticalAlign=top;verticalLabelPosition=bottom;labelBackgroundColor=#ffffff;imageAspect=0;aspect=fixed;image=https://cdn2.iconfinder.com/data/icons/free-funktional-icons/48/01_Warning_48x48.png;fontColor=default;strokeWidth=1;fillColor=none;" parent="1" vertex="1">
          <mxGeometry x="282" y="202" width="18" height="18" as="geometry" />
        </mxCell>
        <mxCell id="JCkuHaJwxj3CZc9LXlBO-65" value="" style="shape=image;html=1;verticalAlign=top;verticalLabelPosition=bottom;labelBackgroundColor=#ffffff;imageAspect=0;aspect=fixed;image=https://cdn4.iconfinder.com/data/icons/scripting-and-programming-languages/512/Python_logo-128.png;fontColor=default;strokeWidth=1;fillColor=none;" parent="1" vertex="1">
          <mxGeometry x="800" y="250.75" width="20" height="20" as="geometry" />
        </mxCell>
        <mxCell id="JCkuHaJwxj3CZc9LXlBO-66" value="" style="shape=image;html=1;verticalAlign=top;verticalLabelPosition=bottom;labelBackgroundColor=#ffffff;imageAspect=0;aspect=fixed;image=https://cdn4.iconfinder.com/data/icons/scripting-and-programming-languages/512/Python_logo-128.png;fontColor=default;strokeWidth=1;fillColor=none;" parent="1" vertex="1">
          <mxGeometry x="1228.5" y="188.5" width="21.5" height="21.5" as="geometry" />
        </mxCell>
        <mxCell id="JCkuHaJwxj3CZc9LXlBO-67" value="" style="group" parent="1" vertex="1" connectable="0">
          <mxGeometry x="290" width="133" height="150" as="geometry" />
        </mxCell>
        <mxCell id="JCkuHaJwxj3CZc9LXlBO-40" value="" style="rounded=1;whiteSpace=wrap;html=1;absoluteArcSize=1;arcSize=14;strokeWidth=1;fillColor=#d5e8d4;strokeColor=#82b366;" parent="JCkuHaJwxj3CZc9LXlBO-67" vertex="1">
          <mxGeometry y="10" width="120" height="130" as="geometry" />
        </mxCell>
        <mxCell id="JCkuHaJwxj3CZc9LXlBO-33" value="bevas01vr" style="sketch=0;aspect=fixed;html=1;points=[];align=center;image;fontSize=12;image=img/lib/mscae/VM_Linux.svg;labelPosition=center;verticalLabelPosition=top;verticalAlign=bottom;" parent="JCkuHaJwxj3CZc9LXlBO-67" vertex="1">
          <mxGeometry x="15" y="40" width="50" height="46" as="geometry" />
        </mxCell>
        <mxCell id="JCkuHaJwxj3CZc9LXlBO-31" value="Crontab" style="shape=image;html=1;verticalAlign=top;verticalLabelPosition=bottom;labelBackgroundColor=#ffffff;imageAspect=0;aspect=fixed;image=https://cdn1.iconfinder.com/data/icons/Futurosoft%20Icons%200.5.2/128x128/mimetypes/Schedule_File.png" parent="JCkuHaJwxj3CZc9LXlBO-67" vertex="1">
          <mxGeometry x="40" y="60" width="50" height="50" as="geometry" />
        </mxCell>
        <mxCell id="JCkuHaJwxj3CZc9LXlBO-34" value="skrish04" style="aspect=fixed;html=1;points=[];align=center;image;fontSize=12;image=img/lib/azure2/azure_stack/User_Subscriptions.svg;" parent="JCkuHaJwxj3CZc9LXlBO-67" vertex="1">
          <mxGeometry x="73.20999999999998" y="14" width="26.79" height="26" as="geometry" />
        </mxCell>
        <mxCell id="JCkuHaJwxj3CZc9LXlBO-61" value="" style="shape=image;html=1;verticalAlign=top;verticalLabelPosition=bottom;labelBackgroundColor=#ffffff;imageAspect=0;aspect=fixed;image=https://cdn0.iconfinder.com/data/icons/phosphor-fill-vol-3/256/number-square-one-fill-128.png;fontColor=default;strokeWidth=1;fillColor=none;" parent="JCkuHaJwxj3CZc9LXlBO-67" vertex="1">
          <mxGeometry x="100" width="30" height="30" as="geometry" />
        </mxCell>
        <mxCell id="t4FHgmi4JVvNeo_v00hr-1" value="" style="aspect=fixed;perimeter=ellipsePerimeter;html=1;align=center;shadow=0;dashed=0;spacingTop=3;image;image=img/lib/active_directory/generic_server.svg;" parent="JCkuHaJwxj3CZc9LXlBO-67" vertex="1">
          <mxGeometry x="102" y="100" width="28.000000000000004" height="50" as="geometry" />
        </mxCell>
        <mxCell id="t4FHgmi4JVvNeo_v00hr-2" value="" style="aspect=fixed;perimeter=ellipsePerimeter;html=1;align=center;shadow=0;dashed=0;spacingTop=3;image;image=img/lib/active_directory/generic_server.svg;" parent="1" vertex="1">
          <mxGeometry x="391" y="240" width="28.000000000000004" height="50" as="geometry" />
        </mxCell>
        <mxCell id="t4FHgmi4JVvNeo_v00hr-3" value="" style="aspect=fixed;perimeter=ellipsePerimeter;html=1;align=center;shadow=0;dashed=0;spacingTop=3;image;image=img/lib/active_directory/generic_server.svg;" parent="1" vertex="1">
          <mxGeometry x="800" y="186" width="28.000000000000004" height="50" as="geometry" />
        </mxCell>
        <mxCell id="t4FHgmi4JVvNeo_v00hr-4" value="" style="aspect=fixed;perimeter=ellipsePerimeter;html=1;align=center;shadow=0;dashed=0;spacingTop=3;image;image=img/lib/active_directory/generic_server.svg;" parent="1" vertex="1">
          <mxGeometry x="1120" y="124" width="28.000000000000004" height="50" as="geometry" />
        </mxCell>
      </root>
    </mxGraphModel>
  </diagram>
  <diagram id="9uu1UoiV0qQrS8yvtTqc" name="LEMT-TAS">
    <mxGraphModel dx="2047" dy="1805" grid="1" gridSize="10" guides="1" tooltips="1" connect="1" arrows="1" fold="1" page="1" pageScale="1" pageWidth="850" pageHeight="1100" math="0" shadow="0">
      <root>
        <mxCell id="0" />
        <mxCell id="1" parent="0" />
        <mxCell id="gXYf_dAZeqefdJGXJ3g7-37" value="Service" style="rounded=1;whiteSpace=wrap;html=1;absoluteArcSize=1;arcSize=14;strokeWidth=2;fontColor=default;fillColor=none;fontStyle=1;labelPosition=center;verticalLabelPosition=bottom;align=center;verticalAlign=top;" parent="1" vertex="1">
          <mxGeometry x="1050" y="16" width="220" height="224" as="geometry" />
        </mxCell>
        <mxCell id="gXYf_dAZeqefdJGXJ3g7-1" value="Log Importer" style="rounded=1;whiteSpace=wrap;html=1;absoluteArcSize=1;arcSize=14;strokeWidth=2;fontColor=default;fillColor=none;labelPosition=center;verticalLabelPosition=bottom;align=center;verticalAlign=top;fontStyle=1;strokeColor=#FF3333;" parent="1" vertex="1">
          <mxGeometry x="-20" y="-30" width="490" height="380" as="geometry" />
        </mxCell>
        <mxCell id="gXYf_dAZeqefdJGXJ3g7-2" value="Simplifier" style="rounded=1;whiteSpace=wrap;html=1;absoluteArcSize=1;arcSize=14;strokeWidth=2;fontColor=default;fillColor=none;labelPosition=center;verticalLabelPosition=bottom;align=center;verticalAlign=top;fontStyle=1" parent="1" vertex="1">
          <mxGeometry x="620" y="150" width="220" height="220" as="geometry" />
        </mxCell>
        <mxCell id="gXYf_dAZeqefdJGXJ3g7-12" style="edgeStyle=orthogonalEdgeStyle;rounded=0;orthogonalLoop=1;jettySize=auto;html=1;entryX=1;entryY=0.5;entryDx=0;entryDy=0;entryPerimeter=0;startArrow=none;" parent="1" source="evOIvVAKoPCNP1A1HWml-1" target="gXYf_dAZeqefdJGXJ3g7-5" edge="1">
          <mxGeometry relative="1" as="geometry">
            <mxPoint x="250" y="230.75" as="sourcePoint" />
          </mxGeometry>
        </mxCell>
        <mxCell id="gXYf_dAZeqefdJGXJ3g7-15" value=".log files" style="edgeStyle=orthogonalEdgeStyle;rounded=0;orthogonalLoop=1;jettySize=auto;html=1;fontStyle=1" parent="1" source="evOIvVAKoPCNP1A1HWml-1" target="gXYf_dAZeqefdJGXJ3g7-22" edge="1">
          <mxGeometry relative="1" as="geometry">
            <mxPoint x="470" y="240" as="targetPoint" />
            <mxPoint x="370" y="230.79999999999995" as="sourcePoint" />
          </mxGeometry>
        </mxCell>
        <mxCell id="gXYf_dAZeqefdJGXJ3g7-16" style="edgeStyle=orthogonalEdgeStyle;rounded=0;orthogonalLoop=1;jettySize=auto;html=1;entryX=0.5;entryY=0;entryDx=0;entryDy=0;fontColor=default;" parent="1" source="evOIvVAKoPCNP1A1HWml-1" target="gXYf_dAZeqefdJGXJ3g7-29" edge="1">
          <mxGeometry relative="1" as="geometry">
            <Array as="points">
              <mxPoint x="430" y="210" />
              <mxPoint x="430" y="170" />
              <mxPoint x="760" y="170" />
            </Array>
            <mxPoint x="370" y="210" as="sourcePoint" />
          </mxGeometry>
        </mxCell>
        <mxCell id="gXYf_dAZeqefdJGXJ3g7-17" style="edgeStyle=orthogonalEdgeStyle;rounded=0;orthogonalLoop=1;jettySize=auto;html=1;entryX=0.5;entryY=1;entryDx=0;entryDy=0;fontColor=default;startArrow=blockThin;startFill=1;endArrow=classic;endFill=1;" parent="1" source="evOIvVAKoPCNP1A1HWml-1" target="gXYf_dAZeqefdJGXJ3g7-45" edge="1">
          <mxGeometry relative="1" as="geometry">
            <mxPoint x="310" y="200.75" as="sourcePoint" />
          </mxGeometry>
        </mxCell>
        <mxCell id="gXYf_dAZeqefdJGXJ3g7-21" value=".log files" style="edgeStyle=orthogonalEdgeStyle;rounded=0;orthogonalLoop=1;jettySize=auto;html=1;entryX=0;entryY=0.5;entryDx=0;entryDy=0;fontColor=default;" parent="1" source="gXYf_dAZeqefdJGXJ3g7-22" target="gXYf_dAZeqefdJGXJ3g7-29" edge="1">
          <mxGeometry relative="1" as="geometry" />
        </mxCell>
        <mxCell id="gXYf_dAZeqefdJGXJ3g7-22" value="/nas/observatory/TAS&lt;br&gt;(IntakeLogs Folder)" style="fontColor=#0066CC;verticalAlign=top;verticalLabelPosition=bottom;labelPosition=center;align=center;html=1;outlineConnect=0;fillColor=#CCCCCC;strokeColor=#6881B3;gradientColor=none;gradientDirection=north;strokeWidth=2;shape=mxgraph.networks.nas_filer;" parent="1" vertex="1">
          <mxGeometry x="500" y="222.5" width="100" height="35" as="geometry" />
        </mxCell>
        <mxCell id="gXYf_dAZeqefdJGXJ3g7-25" style="edgeStyle=orthogonalEdgeStyle;rounded=0;orthogonalLoop=1;jettySize=auto;html=1;fontColor=default;" parent="1" source="gXYf_dAZeqefdJGXJ3g7-29" target="gXYf_dAZeqefdJGXJ3g7-57" edge="1">
          <mxGeometry relative="1" as="geometry">
            <mxPoint x="940" y="180" as="targetPoint" />
            <Array as="points">
              <mxPoint x="870" y="240" />
              <mxPoint x="870" y="180" />
            </Array>
          </mxGeometry>
        </mxCell>
        <mxCell id="gXYf_dAZeqefdJGXJ3g7-27" style="edgeStyle=orthogonalEdgeStyle;rounded=0;orthogonalLoop=1;jettySize=auto;html=1;fontColor=default;" parent="1" source="gXYf_dAZeqefdJGXJ3g7-29" target="gXYf_dAZeqefdJGXJ3g7-31" edge="1">
          <mxGeometry relative="1" as="geometry">
            <Array as="points">
              <mxPoint x="760" y="320" />
            </Array>
          </mxGeometry>
        </mxCell>
        <mxCell id="gXYf_dAZeqefdJGXJ3g7-28" value=".log files" style="edgeLabel;html=1;align=center;verticalAlign=middle;resizable=0;points=[];fontColor=default;fontStyle=1" parent="gXYf_dAZeqefdJGXJ3g7-27" vertex="1" connectable="0">
          <mxGeometry x="0.4727" y="2" relative="1" as="geometry">
            <mxPoint as="offset" />
          </mxGeometry>
        </mxCell>
        <mxCell id="gXYf_dAZeqefdJGXJ3g7-29" value="LEMT-LogSimplifier.py" style="shape=process;whiteSpace=wrap;html=1;backgroundOutline=1;fillColor=#d5e8d4;strokeColor=#82b366;" parent="1" vertex="1">
          <mxGeometry x="700" y="210" width="120" height="60" as="geometry" />
        </mxCell>
        <mxCell id="gXYf_dAZeqefdJGXJ3g7-31" value="/nas/observatory/TAS&lt;br&gt;(ProcessedLogs Folder)" style="fontColor=#0066CC;verticalAlign=top;verticalLabelPosition=bottom;labelPosition=center;align=center;html=1;outlineConnect=0;fillColor=#CCCCCC;strokeColor=#6881B3;gradientColor=none;gradientDirection=north;strokeWidth=2;shape=mxgraph.networks.nas_filer;" parent="1" vertex="1">
          <mxGeometry x="920" y="290" width="100" height="35" as="geometry" />
        </mxCell>
        <mxCell id="gXYf_dAZeqefdJGXJ3g7-32" style="edgeStyle=orthogonalEdgeStyle;rounded=0;orthogonalLoop=1;jettySize=auto;html=1;fontColor=default;endArrow=classic;endFill=1;startArrow=block;startFill=1;" parent="1" source="gXYf_dAZeqefdJGXJ3g7-35" edge="1">
          <mxGeometry relative="1" as="geometry">
            <mxPoint x="1000" y="180" as="targetPoint" />
          </mxGeometry>
        </mxCell>
        <mxCell id="gXYf_dAZeqefdJGXJ3g7-33" value="API Calls" style="edgeLabel;html=1;align=center;verticalAlign=middle;resizable=0;points=[];fontColor=default;fontStyle=1" parent="gXYf_dAZeqefdJGXJ3g7-32" vertex="1" connectable="0">
          <mxGeometry x="-0.1211" relative="1" as="geometry">
            <mxPoint as="offset" />
          </mxGeometry>
        </mxCell>
        <mxCell id="gXYf_dAZeqefdJGXJ3g7-34" style="edgeStyle=orthogonalEdgeStyle;rounded=0;orthogonalLoop=1;jettySize=auto;html=1;fontColor=default;startArrow=none;startFill=0;endArrow=classic;endFill=1;entryX=0.5;entryY=1;entryDx=0;entryDy=0;entryPerimeter=0;dashed=1;" parent="1" source="gXYf_dAZeqefdJGXJ3g7-35" target="gXYf_dAZeqefdJGXJ3g7-36" edge="1">
          <mxGeometry relative="1" as="geometry">
            <Array as="points">
              <mxPoint x="1190" y="90" />
              <mxPoint x="1190" y="90" />
            </Array>
          </mxGeometry>
        </mxCell>
        <mxCell id="gXYf_dAZeqefdJGXJ3g7-35" value="LEMT-API.py" style="shape=process;whiteSpace=wrap;html=1;backgroundOutline=1;fillColor=#d5e8d4;strokeColor=#82b366;" parent="1" vertex="1">
          <mxGeometry x="1130" y="150" width="120" height="60" as="geometry" />
        </mxCell>
        <mxCell id="gXYf_dAZeqefdJGXJ3g7-36" value="/nas/observatory/TAS&lt;br&gt;(LEMT-Tool Logs)" style="fontColor=#0066CC;verticalAlign=bottom;verticalLabelPosition=top;labelPosition=center;align=center;html=1;outlineConnect=0;fillColor=#CCCCCC;strokeColor=#6881B3;gradientColor=none;gradientDirection=north;strokeWidth=2;shape=mxgraph.networks.nas_filer;" parent="1" vertex="1">
          <mxGeometry x="1140" y="70" width="100" height="35" as="geometry" />
        </mxCell>
        <mxCell id="gXYf_dAZeqefdJGXJ3g7-38" value="HTTP Calls" style="edgeStyle=orthogonalEdgeStyle;rounded=0;orthogonalLoop=1;jettySize=auto;html=1;entryX=0.786;entryY=1.007;entryDx=0;entryDy=0;entryPerimeter=0;fontColor=default;startArrow=blockThin;startFill=1;endArrow=classic;endFill=1;" parent="1" source="gXYf_dAZeqefdJGXJ3g7-39" target="gXYf_dAZeqefdJGXJ3g7-37" edge="1">
          <mxGeometry relative="1" as="geometry" />
        </mxCell>
        <mxCell id="gXYf_dAZeqefdJGXJ3g7-39" value="" style="verticalLabelPosition=bottom;html=1;verticalAlign=top;align=center;strokeColor=none;fillColor=#00BEF2;shape=mxgraph.azure.website_generic;pointerEvents=1;fontColor=default;" parent="1" vertex="1">
          <mxGeometry x="1133" y="390" width="178" height="130" as="geometry" />
        </mxCell>
        <mxCell id="gXYf_dAZeqefdJGXJ3g7-40" value="" style="shape=image;html=1;verticalAlign=top;verticalLabelPosition=bottom;labelBackgroundColor=#ffffff;imageAspect=0;aspect=fixed;image=https://cdn0.iconfinder.com/data/icons/phosphor-fill-vol-3/256/number-square-two-fill-128.png;fontColor=default;strokeWidth=1;fillColor=none;" parent="1" vertex="1">
          <mxGeometry x="1236" y="135" width="28" height="28" as="geometry" />
        </mxCell>
        <mxCell id="gXYf_dAZeqefdJGXJ3g7-41" value="" style="shape=image;html=1;verticalAlign=top;verticalLabelPosition=bottom;labelBackgroundColor=#ffffff;imageAspect=0;aspect=fixed;image=https://cdn2.iconfinder.com/data/icons/free-funktional-icons/48/01_Warning_48x48.png;fontColor=default;strokeWidth=1;fillColor=none;" parent="1" vertex="1">
          <mxGeometry x="240" y="192" width="18" height="18" as="geometry" />
        </mxCell>
        <mxCell id="gXYf_dAZeqefdJGXJ3g7-42" value="" style="shape=image;html=1;verticalAlign=top;verticalLabelPosition=bottom;labelBackgroundColor=#ffffff;imageAspect=0;aspect=fixed;image=https://cdn4.iconfinder.com/data/icons/scripting-and-programming-languages/512/Python_logo-128.png;fontColor=default;strokeWidth=1;fillColor=none;" parent="1" vertex="1">
          <mxGeometry x="800" y="250.75" width="20" height="20" as="geometry" />
        </mxCell>
        <mxCell id="gXYf_dAZeqefdJGXJ3g7-43" value="" style="shape=image;html=1;verticalAlign=top;verticalLabelPosition=bottom;labelBackgroundColor=#ffffff;imageAspect=0;aspect=fixed;image=https://cdn4.iconfinder.com/data/icons/scripting-and-programming-languages/512/Python_logo-128.png;fontColor=default;strokeWidth=1;fillColor=none;" parent="1" vertex="1">
          <mxGeometry x="1228.5" y="188.5" width="21.5" height="21.5" as="geometry" />
        </mxCell>
        <mxCell id="gXYf_dAZeqefdJGXJ3g7-44" value="" style="group;fillColor=#fff2cc;strokeColor=#d6b656;" parent="1" vertex="1" connectable="0">
          <mxGeometry x="210" width="133" height="150" as="geometry" />
        </mxCell>
        <mxCell id="gXYf_dAZeqefdJGXJ3g7-45" value="" style="rounded=1;whiteSpace=wrap;html=1;absoluteArcSize=1;arcSize=14;strokeWidth=1;fillColor=#fff2cc;strokeColor=#d6b656;" parent="gXYf_dAZeqefdJGXJ3g7-44" vertex="1">
          <mxGeometry y="10" width="120" height="130" as="geometry" />
        </mxCell>
        <mxCell id="gXYf_dAZeqefdJGXJ3g7-46" value="bevas01vr" style="sketch=0;aspect=fixed;html=1;points=[];align=center;image;fontSize=12;image=img/lib/mscae/VM_Linux.svg;labelPosition=center;verticalLabelPosition=top;verticalAlign=bottom;" parent="gXYf_dAZeqefdJGXJ3g7-44" vertex="1">
          <mxGeometry x="15" y="40" width="50" height="46" as="geometry" />
        </mxCell>
        <mxCell id="gXYf_dAZeqefdJGXJ3g7-47" value="Crontab" style="shape=image;html=1;verticalAlign=top;verticalLabelPosition=bottom;labelBackgroundColor=#ffffff;imageAspect=0;aspect=fixed;image=https://cdn1.iconfinder.com/data/icons/Futurosoft%20Icons%200.5.2/128x128/mimetypes/Schedule_File.png" parent="gXYf_dAZeqefdJGXJ3g7-44" vertex="1">
          <mxGeometry x="40" y="60" width="50" height="50" as="geometry" />
        </mxCell>
        <mxCell id="gXYf_dAZeqefdJGXJ3g7-48" value="skrish04" style="aspect=fixed;html=1;points=[];align=center;image;fontSize=12;image=img/lib/azure2/azure_stack/User_Subscriptions.svg;" parent="gXYf_dAZeqefdJGXJ3g7-44" vertex="1">
          <mxGeometry x="73.20999999999998" y="14" width="26.79" height="26" as="geometry" />
        </mxCell>
        <mxCell id="gXYf_dAZeqefdJGXJ3g7-49" value="" style="shape=image;html=1;verticalAlign=top;verticalLabelPosition=bottom;labelBackgroundColor=#ffffff;imageAspect=0;aspect=fixed;image=https://cdn0.iconfinder.com/data/icons/phosphor-fill-vol-3/256/number-square-one-fill-128.png;fontColor=default;strokeWidth=1;fillColor=none;" parent="gXYf_dAZeqefdJGXJ3g7-44" vertex="1">
          <mxGeometry x="100" width="30" height="30" as="geometry" />
        </mxCell>
        <mxCell id="gXYf_dAZeqefdJGXJ3g7-50" value="" style="aspect=fixed;perimeter=ellipsePerimeter;html=1;align=center;shadow=0;dashed=0;spacingTop=3;image;image=img/lib/active_directory/generic_server.svg;" parent="gXYf_dAZeqefdJGXJ3g7-44" vertex="1">
          <mxGeometry x="102" y="100" width="28.000000000000004" height="50" as="geometry" />
        </mxCell>
        <mxCell id="gXYf_dAZeqefdJGXJ3g7-52" value="" style="aspect=fixed;perimeter=ellipsePerimeter;html=1;align=center;shadow=0;dashed=0;spacingTop=3;image;image=img/lib/active_directory/generic_server.svg;" parent="1" vertex="1">
          <mxGeometry x="800" y="186" width="28.000000000000004" height="50" as="geometry" />
        </mxCell>
        <mxCell id="gXYf_dAZeqefdJGXJ3g7-53" value="" style="aspect=fixed;perimeter=ellipsePerimeter;html=1;align=center;shadow=0;dashed=0;spacingTop=3;image;image=img/lib/active_directory/generic_server.svg;" parent="1" vertex="1">
          <mxGeometry x="1120" y="124" width="28.000000000000004" height="50" as="geometry" />
        </mxCell>
        <mxCell id="gXYf_dAZeqefdJGXJ3g7-4" value="Server1" style="image;html=1;image=img/lib/clip_art/computers/Server_Rack_128x128.png" parent="1" vertex="1">
          <mxGeometry x="20" y="170.75" width="80" height="80" as="geometry" />
        </mxCell>
        <mxCell id="gXYf_dAZeqefdJGXJ3g7-55" value="" style="edgeStyle=orthogonalEdgeStyle;rounded=0;orthogonalLoop=1;jettySize=auto;html=1;" parent="1" source="gXYf_dAZeqefdJGXJ3g7-7" target="gXYf_dAZeqefdJGXJ3g7-5" edge="1">
          <mxGeometry relative="1" as="geometry" />
        </mxCell>
        <mxCell id="gXYf_dAZeqefdJGXJ3g7-7" value="Server2" style="image;html=1;image=img/lib/clip_art/computers/Server_Rack_128x128.png" parent="1" vertex="1">
          <mxGeometry x="-10" y="190.75" width="80" height="80" as="geometry" />
        </mxCell>
        <mxCell id="gXYf_dAZeqefdJGXJ3g7-5" value="TAS Portal&lt;br&gt;(Logs)" style="sketch=0;pointerEvents=1;shadow=0;dashed=0;html=1;strokeColor=none;labelPosition=center;verticalLabelPosition=bottom;verticalAlign=top;align=center;fillColor=#505050;shape=mxgraph.mscae.oms.log_management" parent="1" vertex="1">
          <mxGeometry x="120" y="205.75" width="41" height="50" as="geometry" />
        </mxCell>
        <mxCell id="gXYf_dAZeqefdJGXJ3g7-10" value="Server3" style="image;html=1;image=img/lib/clip_art/computers/Server_Rack_128x128.png" parent="1" vertex="1">
          <mxGeometry x="-30" y="177.5" width="80" height="80" as="geometry" />
        </mxCell>
        <mxCell id="gXYf_dAZeqefdJGXJ3g7-57" value="influxDB" style="aspect=fixed;html=1;points=[];align=center;image;fontSize=12;image=img/lib/azure2/preview/Time_Series_Data_Sets.svg;" parent="1" vertex="1">
          <mxGeometry x="946" y="137" width="48" height="64" as="geometry" />
        </mxCell>
        <mxCell id="evOIvVAKoPCNP1A1HWml-1" value="UI Automation&lt;br&gt;Write API" style="aspect=fixed;html=1;points=[];align=center;image;fontSize=12;image=img/lib/azure2/compute/Azure_Spring_Cloud.svg;imageBackground=#CCFFE6;labelPosition=center;verticalLabelPosition=bottom;verticalAlign=top;fontStyle=1" parent="1" vertex="1">
          <mxGeometry x="258" y="198.75" width="68" height="64" as="geometry" />
        </mxCell>
      </root>
    </mxGraphModel>
  </diagram>
  <diagram id="qo9MnVVn6mKX7L6mn1lG" name="HCMT">
    <mxGraphModel dx="1197" dy="705" grid="1" gridSize="10" guides="1" tooltips="1" connect="1" arrows="1" fold="1" page="1" pageScale="1" pageWidth="850" pageHeight="1100" math="0" shadow="0">
      <root>
        <mxCell id="0" />
        <mxCell id="1" parent="0" />
        <mxCell id="b3pewK2b8sZlk1dBeza--15" value="HealthCheck" style="rounded=1;whiteSpace=wrap;html=1;fillColor=none;glass=0;shadow=0;sketch=1;labelPosition=center;verticalLabelPosition=bottom;align=center;verticalAlign=top;fontStyle=1" parent="1" vertex="1">
          <mxGeometry x="210" y="30" width="630" height="370" as="geometry" />
        </mxCell>
        <mxCell id="b3pewK2b8sZlk1dBeza--14" value="Service" style="rounded=1;whiteSpace=wrap;html=1;fillColor=none;sketch=1;labelPosition=center;verticalLabelPosition=bottom;align=center;verticalAlign=top;fontStyle=1" parent="1" vertex="1">
          <mxGeometry x="331" y="480" width="510" height="190" as="geometry" />
        </mxCell>
        <mxCell id="DpBaoxXfpRtwcsCES7_b-1" value="External Systems" style="rounded=0;whiteSpace=wrap;html=1;fillColor=#d5e8d4;strokeColor=#82b366;" parent="1" vertex="1">
          <mxGeometry x="579" y="160" width="120" height="60" as="geometry" />
        </mxCell>
        <mxCell id="DpBaoxXfpRtwcsCES7_b-2" value="Internal Systems" style="rounded=0;whiteSpace=wrap;html=1;fillColor=#d5e8d4;strokeColor=#82b366;" parent="1" vertex="1">
          <mxGeometry x="579" y="240" width="120" height="60" as="geometry" />
        </mxCell>
        <mxCell id="DpBaoxXfpRtwcsCES7_b-3" value="Venodr" style="aspect=fixed;perimeter=ellipsePerimeter;html=1;align=center;shadow=0;dashed=0;fontColor=#4277BB;labelBackgroundColor=#ffffff;fontSize=12;spacingTop=3;image;image=img/lib/ibm/security/api_security.svg;" parent="1" vertex="1">
          <mxGeometry x="735" y="170" width="40" height="40" as="geometry" />
        </mxCell>
        <mxCell id="DpBaoxXfpRtwcsCES7_b-5" value="" style="shape=image;html=1;verticalAlign=top;verticalLabelPosition=bottom;labelBackgroundColor=#ffffff;imageAspect=0;aspect=fixed;image=https://cdn2.iconfinder.com/data/icons/competitive-strategy-and-corporate-training/512/196_Api_app_coding_developer_software_app_development-128.png" parent="1" vertex="1">
          <mxGeometry x="795" y="170" width="40" height="40" as="geometry" />
        </mxCell>
        <mxCell id="DpBaoxXfpRtwcsCES7_b-6" value="SSO" style="rounded=0;whiteSpace=wrap;html=1;fillColor=#f8cecc;strokeColor=#b85450;" parent="1" vertex="1">
          <mxGeometry x="579" y="320" width="120" height="60" as="geometry" />
        </mxCell>
        <mxCell id="DpBaoxXfpRtwcsCES7_b-7" value="TAS" style="editableCssRules=.*;shape=image;verticalLabelPosition=bottom;labelBackgroundColor=#ffffff;verticalAlign=top;aspect=fixed;imageAspect=0;image=data:image/svg+xml,PHN2ZyB4bWxucz0iaHR0cDovL3d3dy53My5vcmcvMjAwMC9zdmciIHhtbG5zOnY9Imh0dHBzOi8vdmVjdGEuaW8vbmFubyIgd2lkdGg9IjE4LjMwMDAwMTE0NDQwOTE4IiBoZWlnaHQ9IjE5LjgyNjUwNTY2MTAxMDc0MiIgdmlld0JveD0iLTguNzkxNTE5NjkwMDIxMjMyZS04IDAgMTguMzAwMDAxMTQ0NDA5MTggMTkuODI2NTA1NjYxMDEwNzQyIj4mI3hhOwk8c3R5bGUgdHlwZT0idGV4dC9jc3MiPiYjeGE7CS5zdDB7ZmlsbDojNDI4NWY0fSYjeGE7CS5zdDF7ZmlsbDojYWVjYmZhfSYjeGE7CS5zdDJ7ZmlsbDojNjY5ZGY2fSYjeGE7CTwvc3R5bGU+JiN4YTsJPHBhdGggY2xhc3M9InN0MCIgZD0iTTMuMDEgMTguNDlhMS41MSAxLjUxIDAgMCAxLTMgMGgwdi00LjI4YTEuNTEgMS41MSAwIDEgMSAzIDB6bTUuMTMgMGExLjUxIDEuNTEgMCAwIDEtMyAwaDB2LTQuMjhhMS41MSAxLjUxIDAgMCAxIDMgMHptNS4wNiAwYTEuNTEgMS41MSAwIDAgMS0zIDB2LTQuMjhhMS41MSAxLjUxIDAgMCAxIDMgMHptNS4wOSAwYTEuNTEgMS41MSAwIDAgMS0zIDB2LTQuMjhhMS41MSAxLjUxIDAgMSAxIDMgMHoiLz4mI3hhOwk8Y2lyY2xlIGNsYXNzPSJzdDEiIGN4PSI2LjU5IiBjeT0iOS45NyIgcj0iMS41MSIvPiYjeGE7CTxjaXJjbGUgY2xhc3M9InN0MiIgY3g9IjExLjY5IiBjeT0iOS45NyIgcj0iMS41MSIvPiYjeGE7CTxjaXJjbGUgY2xhc3M9InN0MSIgY3g9IjExLjY5IiBjeT0iNS43NCIgcj0iMS41MSIvPiYjeGE7CTxnIGNsYXNzPSJzdDIiPiYjeGE7CQk8Y2lyY2xlIGN4PSIxNi43OCIgY3k9IjkuOTciIHI9IjEuNTEiLz4mI3hhOwkJPGNpcmNsZSBjeD0iMTYuNzgiIGN5PSI1Ljc0IiByPSIxLjUxIi8+JiN4YTsJPC9nPiYjeGE7CTxjaXJjbGUgY2xhc3M9InN0MSIgY3g9IjE2Ljc4IiBjeT0iMS41MSIgcj0iMS41MSIvPiYjeGE7PC9zdmc+;" parent="1" vertex="1">
          <mxGeometry x="740" y="255" width="30" height="30" as="geometry" />
        </mxCell>
        <mxCell id="DpBaoxXfpRtwcsCES7_b-10" value="1.1" style="edgeStyle=orthogonalEdgeStyle;rounded=0;orthogonalLoop=1;jettySize=auto;html=1;entryX=0;entryY=0.5;entryDx=0;entryDy=0;" parent="1" source="DpBaoxXfpRtwcsCES7_b-9" target="DpBaoxXfpRtwcsCES7_b-1" edge="1">
          <mxGeometry relative="1" as="geometry" />
        </mxCell>
        <mxCell id="DpBaoxXfpRtwcsCES7_b-11" value="1.3" style="edgeStyle=orthogonalEdgeStyle;rounded=0;orthogonalLoop=1;jettySize=auto;html=1;entryX=0;entryY=0.5;entryDx=0;entryDy=0;" parent="1" source="DpBaoxXfpRtwcsCES7_b-9" target="DpBaoxXfpRtwcsCES7_b-2" edge="1">
          <mxGeometry relative="1" as="geometry" />
        </mxCell>
        <mxCell id="DpBaoxXfpRtwcsCES7_b-12" value="1.2" style="edgeStyle=orthogonalEdgeStyle;rounded=0;orthogonalLoop=1;jettySize=auto;html=1;entryX=0;entryY=0.75;entryDx=0;entryDy=0;" parent="1" source="DpBaoxXfpRtwcsCES7_b-9" target="DpBaoxXfpRtwcsCES7_b-6" edge="1">
          <mxGeometry relative="1" as="geometry" />
        </mxCell>
        <mxCell id="nAK-V4LEgyNfyoTRsW7x-5" value="2" style="edgeStyle=orthogonalEdgeStyle;rounded=0;orthogonalLoop=1;jettySize=auto;html=1;entryX=0.5;entryY=0;entryDx=0;entryDy=0;entryPerimeter=0;" parent="1" source="DpBaoxXfpRtwcsCES7_b-9" target="nAK-V4LEgyNfyoTRsW7x-4" edge="1">
          <mxGeometry relative="1" as="geometry">
            <Array as="points">
              <mxPoint x="434" y="430" />
              <mxPoint x="250" y="430" />
            </Array>
          </mxGeometry>
        </mxCell>
        <mxCell id="850-KKxDbPa3Wf1stV7Q-5" style="edgeStyle=orthogonalEdgeStyle;rounded=0;orthogonalLoop=1;jettySize=auto;html=1;entryX=0;entryY=0.5;entryDx=0;entryDy=0;fontSize=11;startArrow=classic;startFill=1;" parent="1" source="DpBaoxXfpRtwcsCES7_b-9" target="850-KKxDbPa3Wf1stV7Q-4" edge="1">
          <mxGeometry relative="1" as="geometry" />
        </mxCell>
        <mxCell id="DpBaoxXfpRtwcsCES7_b-9" value="Write API" style="aspect=fixed;html=1;points=[];align=center;image;fontSize=12;image=img/lib/azure2/compute/Azure_Spring_Cloud.svg;imageBackground=#CCFFE6;labelPosition=center;verticalLabelPosition=top;verticalAlign=bottom;fontStyle=1" parent="1" vertex="1">
          <mxGeometry x="400" y="240" width="68" height="64" as="geometry" />
        </mxCell>
        <mxCell id="nAK-V4LEgyNfyoTRsW7x-3" value="1" style="edgeStyle=orthogonalEdgeStyle;rounded=0;orthogonalLoop=1;jettySize=auto;html=1;entryX=0.074;entryY=0.656;entryDx=0;entryDy=0;entryPerimeter=0;" parent="1" source="X4X6ovU0iOadKheu_uZw-2" target="DpBaoxXfpRtwcsCES7_b-9" edge="1">
          <mxGeometry relative="1" as="geometry" />
        </mxCell>
        <mxCell id="X4X6ovU0iOadKheu_uZw-2" value="HealthChecker.sh" style="rounded=0;whiteSpace=wrap;html=1;fillColor=#d5e8d4;strokeColor=#82b366;" parent="1" vertex="1">
          <mxGeometry x="230" y="250" width="120" height="60" as="geometry" />
        </mxCell>
        <mxCell id="X4X6ovU0iOadKheu_uZw-1" value="" style="shape=image;html=1;verticalAlign=top;verticalLabelPosition=bottom;labelBackgroundColor=#ffffff;imageAspect=0;aspect=fixed;image=https://cdn1.iconfinder.com/data/icons/bootstrap-vol-3/16/filetype-sh-128.png" parent="1" vertex="1">
          <mxGeometry x="330" y="238" width="30" height="30" as="geometry" />
        </mxCell>
        <mxCell id="rDuwgsd0ksY_7Bn7KKC0-1" value="" style="group" parent="1" vertex="1" connectable="0">
          <mxGeometry x="230" y="50" width="133" height="140" as="geometry" />
        </mxCell>
        <mxCell id="rDuwgsd0ksY_7Bn7KKC0-2" value="" style="rounded=1;whiteSpace=wrap;html=1;absoluteArcSize=1;arcSize=14;strokeWidth=1;fillColor=#d5e8d4;strokeColor=#82b366;" parent="rDuwgsd0ksY_7Bn7KKC0-1" vertex="1">
          <mxGeometry y="10" width="120" height="130" as="geometry" />
        </mxCell>
        <mxCell id="rDuwgsd0ksY_7Bn7KKC0-3" value="bevas01vr" style="sketch=0;aspect=fixed;html=1;points=[];align=center;image;fontSize=12;image=img/lib/mscae/VM_Linux.svg;labelPosition=center;verticalLabelPosition=top;verticalAlign=bottom;" parent="rDuwgsd0ksY_7Bn7KKC0-1" vertex="1">
          <mxGeometry x="15" y="40" width="50" height="46" as="geometry" />
        </mxCell>
        <mxCell id="rDuwgsd0ksY_7Bn7KKC0-4" value="Crontab" style="shape=image;html=1;verticalAlign=top;verticalLabelPosition=bottom;labelBackgroundColor=#ffffff;imageAspect=0;aspect=fixed;image=https://cdn1.iconfinder.com/data/icons/Futurosoft%20Icons%200.5.2/128x128/mimetypes/Schedule_File.png" parent="rDuwgsd0ksY_7Bn7KKC0-1" vertex="1">
          <mxGeometry x="40" y="60" width="50" height="50" as="geometry" />
        </mxCell>
        <mxCell id="rDuwgsd0ksY_7Bn7KKC0-5" value="skrish04" style="aspect=fixed;html=1;points=[];align=center;image;fontSize=12;image=img/lib/azure2/azure_stack/User_Subscriptions.svg;" parent="rDuwgsd0ksY_7Bn7KKC0-1" vertex="1">
          <mxGeometry x="73.20999999999998" y="14" width="26.79" height="26" as="geometry" />
        </mxCell>
        <mxCell id="nAK-V4LEgyNfyoTRsW7x-2" style="edgeStyle=orthogonalEdgeStyle;rounded=0;orthogonalLoop=1;jettySize=auto;html=1;" parent="1" source="rDuwgsd0ksY_7Bn7KKC0-2" target="X4X6ovU0iOadKheu_uZw-2" edge="1">
          <mxGeometry relative="1" as="geometry">
            <mxPoint x="370" y="250" as="targetPoint" />
            <Array as="points" />
          </mxGeometry>
        </mxCell>
        <mxCell id="axif0YjIOR2lQ8uV0guW-2" value="" style="edgeStyle=orthogonalEdgeStyle;rounded=0;orthogonalLoop=1;jettySize=auto;html=1;" parent="1" source="nAK-V4LEgyNfyoTRsW7x-4" target="axif0YjIOR2lQ8uV0guW-1" edge="1">
          <mxGeometry relative="1" as="geometry" />
        </mxCell>
        <mxCell id="nAK-V4LEgyNfyoTRsW7x-4" value="Member Dev DB&lt;br&gt;(Oracle)" style="shape=cylinder3;whiteSpace=wrap;html=1;boundedLbl=1;backgroundOutline=1;size=15;fillColor=#d5e8d4;strokeColor=#82b366;" parent="1" vertex="1">
          <mxGeometry x="220" y="460" width="60" height="80" as="geometry" />
        </mxCell>
        <mxCell id="EmgvxPeZ0dfV2E3jACir-2" style="edgeStyle=orthogonalEdgeStyle;rounded=0;orthogonalLoop=1;jettySize=auto;html=1;entryX=0.006;entryY=0.327;entryDx=0;entryDy=0;entryPerimeter=0;startArrow=classic;startFill=1;" parent="1" source="axif0YjIOR2lQ8uV0guW-1" target="EmgvxPeZ0dfV2E3jACir-1" edge="1">
          <mxGeometry relative="1" as="geometry" />
        </mxCell>
        <mxCell id="axif0YjIOR2lQ8uV0guW-1" value="Read API" style="aspect=fixed;html=1;points=[];align=center;image;fontSize=12;image=img/lib/azure2/compute/Azure_Spring_Cloud.svg;imageBackground=#CCCCFF;fontStyle=1" parent="1" vertex="1">
          <mxGeometry x="410" y="500" width="68" height="64" as="geometry" />
        </mxCell>
        <mxCell id="EmgvxPeZ0dfV2E3jACir-1" value="" style="verticalLabelPosition=bottom;html=1;verticalAlign=top;align=center;strokeColor=none;fillColor=#00BEF2;shape=mxgraph.azure.website_generic;pointerEvents=1;fontColor=default;" parent="1" vertex="1">
          <mxGeometry x="550" y="510" width="178" height="130" as="geometry" />
        </mxCell>
        <mxCell id="b3pewK2b8sZlk1dBeza--3" value="" style="shape=image;html=1;verticalAlign=top;verticalLabelPosition=bottom;labelBackgroundColor=#ffffff;imageAspect=0;aspect=fixed;image=https://cdn0.iconfinder.com/data/icons/phosphor-fill-vol-3/256/number-square-two-fill-128.png;fontColor=default;strokeWidth=1;fillColor=none;" parent="1" vertex="1">
          <mxGeometry x="670" y="150" width="28" height="28" as="geometry" />
        </mxCell>
        <mxCell id="b3pewK2b8sZlk1dBeza--4" value="" style="shape=image;html=1;verticalAlign=top;verticalLabelPosition=bottom;labelBackgroundColor=#ffffff;imageAspect=0;aspect=fixed;image=https://cdn0.iconfinder.com/data/icons/phosphor-fill-vol-3/256/number-square-two-fill-128.png;fontColor=default;strokeWidth=1;fillColor=none;" parent="1" vertex="1">
          <mxGeometry x="670" y="230" width="28" height="28" as="geometry" />
        </mxCell>
        <mxCell id="b3pewK2b8sZlk1dBeza--5" value="" style="shape=image;html=1;verticalAlign=top;verticalLabelPosition=bottom;labelBackgroundColor=#ffffff;imageAspect=0;aspect=fixed;image=https://cdn0.iconfinder.com/data/icons/phosphor-fill-vol-3/256/number-square-two-fill-128.png;fontColor=default;strokeWidth=1;fillColor=none;" parent="1" vertex="1">
          <mxGeometry x="670" y="310" width="28" height="28" as="geometry" />
        </mxCell>
        <mxCell id="b3pewK2b8sZlk1dBeza--9" style="edgeStyle=orthogonalEdgeStyle;rounded=0;orthogonalLoop=1;jettySize=auto;html=1;entryX=0.837;entryY=0.373;entryDx=0;entryDy=0;entryPerimeter=0;exitX=0;exitY=0.5;exitDx=0;exitDy=0;" parent="1" source="b3pewK2b8sZlk1dBeza--10" target="EmgvxPeZ0dfV2E3jACir-1" edge="1">
          <mxGeometry relative="1" as="geometry">
            <mxPoint x="775" y="510" as="sourcePoint" />
          </mxGeometry>
        </mxCell>
        <mxCell id="b3pewK2b8sZlk1dBeza--10" value="Users" style="aspect=fixed;perimeter=ellipsePerimeter;html=1;align=center;shadow=0;dashed=0;spacingTop=3;image;image=img/lib/active_directory/user_accounts.svg;" parent="1" vertex="1">
          <mxGeometry x="775" y="585.5" width="50" height="48.5" as="geometry" />
        </mxCell>
        <mxCell id="b3pewK2b8sZlk1dBeza--12" style="edgeStyle=orthogonalEdgeStyle;rounded=0;orthogonalLoop=1;jettySize=auto;html=1;entryX=0.753;entryY=0.381;entryDx=0;entryDy=0;entryPerimeter=0;" parent="1" source="b3pewK2b8sZlk1dBeza--11" target="EmgvxPeZ0dfV2E3jACir-1" edge="1">
          <mxGeometry relative="1" as="geometry" />
        </mxCell>
        <mxCell id="b3pewK2b8sZlk1dBeza--13" value="Force - Health Check" style="edgeStyle=orthogonalEdgeStyle;rounded=0;orthogonalLoop=1;jettySize=auto;html=1;dashed=1;startArrow=classic;startFill=1;" parent="1" source="b3pewK2b8sZlk1dBeza--11" edge="1">
          <mxGeometry relative="1" as="geometry">
            <Array as="points">
              <mxPoint x="809" y="450" />
              <mxPoint x="450" y="450" />
            </Array>
            <mxPoint x="450" y="300" as="targetPoint" />
          </mxGeometry>
        </mxCell>
        <mxCell id="b3pewK2b8sZlk1dBeza--11" value="Admin" style="aspect=fixed;html=1;points=[];align=center;image;fontSize=12;image=img/lib/azure2/azure_stack/User_Subscriptions.svg;" parent="1" vertex="1">
          <mxGeometry x="770" y="500" width="51.52" height="50" as="geometry" />
        </mxCell>
        <mxCell id="nAK-V4LEgyNfyoTRsW7x-1" value="*/15" style="ellipse;shape=umlControl;whiteSpace=wrap;html=1;fontColor=default;fillColor=none;labelPosition=center;verticalLabelPosition=bottom;align=center;verticalAlign=top;fontStyle=3;fontSize=11;" parent="1" vertex="1">
          <mxGeometry x="330" y="293" width="30" height="30" as="geometry" />
        </mxCell>
        <mxCell id="850-KKxDbPa3Wf1stV7Q-8" style="edgeStyle=orthogonalEdgeStyle;rounded=0;orthogonalLoop=1;jettySize=auto;html=1;fontSize=11;startArrow=classic;startFill=1;" parent="1" source="850-KKxDbPa3Wf1stV7Q-4" target="850-KKxDbPa3Wf1stV7Q-7" edge="1">
          <mxGeometry relative="1" as="geometry" />
        </mxCell>
        <mxCell id="850-KKxDbPa3Wf1stV7Q-4" value="Platform" style="rounded=0;whiteSpace=wrap;html=1;fillColor=#f8cecc;strokeColor=#b85450;" parent="1" vertex="1">
          <mxGeometry x="578" y="70" width="120" height="60" as="geometry" />
        </mxCell>
        <mxCell id="850-KKxDbPa3Wf1stV7Q-7" value="" style="shape=image;imageAspect=0;aspect=fixed;verticalLabelPosition=bottom;verticalAlign=top;rounded=1;shadow=0;glass=0;sketch=1;fontSize=11;fillColor=none;image=https://avatars.githubusercontent.com/u/1772014?s=200&amp;v=4;" parent="1" vertex="1">
          <mxGeometry x="731.5" y="73" width="57" height="57" as="geometry" />
        </mxCell>
        <mxCell id="850-KKxDbPa3Wf1stV7Q-9" value="" style="shape=image;html=1;verticalAlign=top;verticalLabelPosition=bottom;labelBackgroundColor=#ffffff;imageAspect=0;aspect=fixed;image=https://cdn0.iconfinder.com/data/icons/phosphor-fill-vol-3/256/number-square-two-fill-128.png;fontColor=default;strokeWidth=1;fillColor=none;" parent="1" vertex="1">
          <mxGeometry x="671" y="60" width="28" height="28" as="geometry" />
        </mxCell>
      </root>
    </mxGraphModel>
  </diagram>
  <diagram id="gGyMc5ds3GC3vEudTFBK" name="PerfT">
    <mxGraphModel dx="2047" dy="705" grid="1" gridSize="10" guides="1" tooltips="1" connect="1" arrows="1" fold="1" page="1" pageScale="1" pageWidth="850" pageHeight="1100" math="0" shadow="0">
      <root>
        <mxCell id="0" />
        <mxCell id="1" parent="0" />
        <mxCell id="y2vlsPMpMl8sP8FiIYpK-63" value="4" style="edgeStyle=orthogonalEdgeStyle;rounded=0;orthogonalLoop=1;jettySize=auto;html=1;entryX=0.136;entryY=0.567;entryDx=0;entryDy=0;entryPerimeter=0;fontSize=13;strokeWidth=1;exitX=0.471;exitY=1.063;exitDx=0;exitDy=0;exitPerimeter=0;" edge="1" parent="1" source="y2vlsPMpMl8sP8FiIYpK-15" target="y2vlsPMpMl8sP8FiIYpK-62">
          <mxGeometry x="-0.7558" relative="1" as="geometry">
            <Array as="points">
              <mxPoint x="217" y="534" />
            </Array>
            <mxPoint as="offset" />
          </mxGeometry>
        </mxCell>
        <mxCell id="y2vlsPMpMl8sP8FiIYpK-1" value="HealthCheck" style="rounded=1;whiteSpace=wrap;html=1;fillColor=none;glass=0;shadow=0;sketch=1;labelPosition=left;verticalLabelPosition=bottom;align=right;verticalAlign=top;fontStyle=1" vertex="1" parent="1">
          <mxGeometry x="-20" y="90" width="480" height="350" as="geometry" />
        </mxCell>
        <mxCell id="y2vlsPMpMl8sP8FiIYpK-15" value="Write API" style="aspect=fixed;html=1;points=[];align=center;image;fontSize=12;image=img/lib/azure2/compute/Azure_Spring_Cloud.svg;imageBackground=#CCFFE6;labelPosition=center;verticalLabelPosition=top;verticalAlign=bottom;fontStyle=1" vertex="1" parent="1">
          <mxGeometry x="185" y="320" width="68" height="64" as="geometry" />
        </mxCell>
        <mxCell id="y2vlsPMpMl8sP8FiIYpK-16" value="1" style="edgeStyle=orthogonalEdgeStyle;rounded=0;orthogonalLoop=1;jettySize=auto;html=1;entryX=0.074;entryY=0.656;entryDx=0;entryDy=0;entryPerimeter=0;" edge="1" parent="1" source="y2vlsPMpMl8sP8FiIYpK-17" target="y2vlsPMpMl8sP8FiIYpK-15">
          <mxGeometry relative="1" as="geometry" />
        </mxCell>
        <mxCell id="y2vlsPMpMl8sP8FiIYpK-17" value="PerfChecker.sh" style="rounded=0;whiteSpace=wrap;html=1;fillColor=#d5e8d4;strokeColor=#82b366;" vertex="1" parent="1">
          <mxGeometry x="15" y="330" width="120" height="60" as="geometry" />
        </mxCell>
        <mxCell id="y2vlsPMpMl8sP8FiIYpK-18" value="" style="shape=image;html=1;verticalAlign=top;verticalLabelPosition=bottom;labelBackgroundColor=#ffffff;imageAspect=0;aspect=fixed;image=https://cdn1.iconfinder.com/data/icons/bootstrap-vol-3/16/filetype-sh-128.png" vertex="1" parent="1">
          <mxGeometry x="115" y="318" width="30" height="30" as="geometry" />
        </mxCell>
        <mxCell id="y2vlsPMpMl8sP8FiIYpK-19" value="" style="group" vertex="1" connectable="0" parent="1">
          <mxGeometry x="15" y="130" width="133" height="140" as="geometry" />
        </mxCell>
        <mxCell id="y2vlsPMpMl8sP8FiIYpK-20" value="" style="rounded=1;whiteSpace=wrap;html=1;absoluteArcSize=1;arcSize=14;strokeWidth=1;fillColor=#d5e8d4;strokeColor=#82b366;" vertex="1" parent="y2vlsPMpMl8sP8FiIYpK-19">
          <mxGeometry y="10" width="120" height="130" as="geometry" />
        </mxCell>
        <mxCell id="y2vlsPMpMl8sP8FiIYpK-21" value="bevas01vr" style="sketch=0;aspect=fixed;html=1;points=[];align=center;image;fontSize=12;image=img/lib/mscae/VM_Linux.svg;labelPosition=center;verticalLabelPosition=top;verticalAlign=bottom;" vertex="1" parent="y2vlsPMpMl8sP8FiIYpK-19">
          <mxGeometry x="15" y="40" width="50" height="46" as="geometry" />
        </mxCell>
        <mxCell id="y2vlsPMpMl8sP8FiIYpK-22" value="Crontab" style="shape=image;html=1;verticalAlign=top;verticalLabelPosition=bottom;labelBackgroundColor=#ffffff;imageAspect=0;aspect=fixed;image=https://cdn1.iconfinder.com/data/icons/Futurosoft%20Icons%200.5.2/128x128/mimetypes/Schedule_File.png" vertex="1" parent="y2vlsPMpMl8sP8FiIYpK-19">
          <mxGeometry x="40" y="60" width="50" height="50" as="geometry" />
        </mxCell>
        <mxCell id="y2vlsPMpMl8sP8FiIYpK-23" value="skrish04" style="aspect=fixed;html=1;points=[];align=center;image;fontSize=12;image=img/lib/azure2/azure_stack/User_Subscriptions.svg;" vertex="1" parent="y2vlsPMpMl8sP8FiIYpK-19">
          <mxGeometry x="73.20999999999998" y="14" width="26.79" height="26" as="geometry" />
        </mxCell>
        <mxCell id="y2vlsPMpMl8sP8FiIYpK-24" value="" style="shape=image;html=1;verticalAlign=top;verticalLabelPosition=bottom;labelBackgroundColor=#ffffff;imageAspect=0;aspect=fixed;image=https://cdn0.iconfinder.com/data/icons/phosphor-fill-vol-3/256/number-square-one-fill-128.png;fontColor=default;strokeWidth=1;fillColor=none;" vertex="1" parent="y2vlsPMpMl8sP8FiIYpK-19">
          <mxGeometry x="100" width="30" height="30" as="geometry" />
        </mxCell>
        <mxCell id="y2vlsPMpMl8sP8FiIYpK-25" style="edgeStyle=orthogonalEdgeStyle;rounded=0;orthogonalLoop=1;jettySize=auto;html=1;" edge="1" parent="1" source="y2vlsPMpMl8sP8FiIYpK-20" target="y2vlsPMpMl8sP8FiIYpK-17">
          <mxGeometry relative="1" as="geometry">
            <mxPoint x="155" y="330" as="targetPoint" />
            <Array as="points" />
          </mxGeometry>
        </mxCell>
        <mxCell id="y2vlsPMpMl8sP8FiIYpK-42" value="0 23 * * * *" style="ellipse;shape=umlControl;whiteSpace=wrap;html=1;fontColor=default;fillColor=none;labelPosition=center;verticalLabelPosition=bottom;align=center;verticalAlign=top;fontStyle=3;fontSize=11;" vertex="1" parent="1">
          <mxGeometry x="115" y="373" width="30" height="30" as="geometry" />
        </mxCell>
        <mxCell id="y2vlsPMpMl8sP8FiIYpK-43" value="3.1" style="edgeStyle=orthogonalEdgeStyle;rounded=0;orthogonalLoop=1;jettySize=auto;html=1;fontSize=11;startArrow=classic;startFill=1;exitX=0.985;exitY=0.563;exitDx=0;exitDy=0;exitPerimeter=0;entryX=0;entryY=0.5;entryDx=0;entryDy=0;" edge="1" parent="1" source="y2vlsPMpMl8sP8FiIYpK-15" target="y2vlsPMpMl8sP8FiIYpK-45">
          <mxGeometry relative="1" as="geometry">
            <mxPoint x="484" y="270" as="sourcePoint" />
          </mxGeometry>
        </mxCell>
        <mxCell id="y2vlsPMpMl8sP8FiIYpK-45" value="" style="shape=image;imageAspect=0;aspect=fixed;verticalLabelPosition=bottom;verticalAlign=top;rounded=1;shadow=0;glass=0;sketch=1;fontSize=11;fillColor=none;image=https://avatars.githubusercontent.com/u/1772014?s=200&amp;v=4;imageBorder=none;" vertex="1" parent="1">
          <mxGeometry x="368" y="190" width="57" height="57" as="geometry" />
        </mxCell>
        <mxCell id="y2vlsPMpMl8sP8FiIYpK-53" value="2" style="edgeStyle=orthogonalEdgeStyle;rounded=0;orthogonalLoop=1;jettySize=auto;html=1;entryX=0;entryY=0.313;entryDx=0;entryDy=0;entryPerimeter=0;" edge="1" parent="1" source="y2vlsPMpMl8sP8FiIYpK-51" target="y2vlsPMpMl8sP8FiIYpK-15">
          <mxGeometry relative="1" as="geometry">
            <mxPoint x="424" y="240" as="targetPoint" />
            <Array as="points">
              <mxPoint x="222" y="240" />
              <mxPoint x="165" y="240" />
              <mxPoint x="165" y="340" />
            </Array>
          </mxGeometry>
        </mxCell>
        <mxCell id="y2vlsPMpMl8sP8FiIYpK-59" value="" style="group" vertex="1" connectable="0" parent="1">
          <mxGeometry x="181" y="142" width="85.39999999999998" height="91" as="geometry" />
        </mxCell>
        <mxCell id="y2vlsPMpMl8sP8FiIYpK-49" value="Member Dev DB&lt;br style=&quot;font-size: 8px;&quot;&gt;(Oracle)" style="shape=cylinder3;whiteSpace=wrap;html=1;boundedLbl=1;backgroundOutline=1;size=15;fillColor=#fff2cc;strokeColor=#d6b656;fontSize=8;fontStyle=1;labelPosition=center;verticalLabelPosition=middle;align=center;verticalAlign=middle;" vertex="1" parent="y2vlsPMpMl8sP8FiIYpK-59">
          <mxGeometry y="41" width="85.4" height="50" as="geometry" />
        </mxCell>
        <mxCell id="y2vlsPMpMl8sP8FiIYpK-51" value="config table" style="sketch=0;html=1;aspect=fixed;strokeColor=none;shadow=0;align=center;verticalAlign=bottom;fillColor=#3B8DF1;shape=mxgraph.gcp2.view_list;labelPosition=center;verticalLabelPosition=top;fontStyle=1" vertex="1" parent="y2vlsPMpMl8sP8FiIYpK-59">
          <mxGeometry x="16.399999999999977" width="48.6" height="60" as="geometry" />
        </mxCell>
        <mxCell id="FR25FqnrDXU3jVZhp2Uy-1" value="Apigee" style="sketch=0;html=1;verticalAlign=top;labelPosition=center;verticalLabelPosition=bottom;align=center;spacingTop=-6;fontSize=11;fontStyle=1;fontColor=#999999;shape=image;aspect=fixed;imageAspect=0;image=data:image/svg+xml,PHN2ZyB4bWxucz0iaHR0cDovL3d3dy53My5vcmcvMjAwMC9zdmciIHhtbG5zOnY9Imh0dHBzOi8vdmVjdGEuaW8vbmFubyIgd2lkdGg9IjIwLjE4MDIzMTA5NDM2MDM1IiBoZWlnaHQ9IjIwLjE4MDIwODIwNjE3Njc1OCIgdmlld0JveD0iLTAuMDAwMTE1MTY1MTIzMTMzOTIwMTMgLTAuMDAwMTAzMzQ0NDkzMjU0NTUzNTMgMjAuMTgwMjMxMDk0MzYwMzUgMjAuMTgwMjA4MjA2MTc2NzU4Ij4mI3hhOwk8c3R5bGUgdHlwZT0idGV4dC9jc3MiPiYjeGE7CS5zdDB7ZmlsbDojNjY5ZGY2O2ZpbGwtcnVsZTpldmVub2RkfSYjeGE7CS5zdDF7ZmlsbC1ydWxlOmV2ZW5vZGQ7ZmlsbDojNDI4NWY0fSYjeGE7CTwvc3R5bGU+JiN4YTsJPHBhdGggY2xhc3M9InN0MCIgZD0iTTMuMjkgMTAuMDlsMS4zMi0xLjMyLTEuNzktMS43OWEyLjk0IDIuOTQgMCAwIDEgMi4wOC01IDIuOTIgMi45MiAwIDAgMSAyLjA3Ljg2bDEuOCAxLjc5IDEuMzItMS4zNEw4LjMgMS41YTQuODEgNC44MSAwIDEgMC02LjggNi44em0xMy42IDBsLTEuMzIgMS4zMiAxLjc5IDEuOGEyLjk0IDIuOTQgMCAwIDEtNC4xNiA0LjE1bC0xLjc5LTEuNzktMS4zMiAxLjMyIDEuNzkgMS43OWE0LjgxIDQuODEgMCAxIDAgNi44LTYuOHoiLz4mI3hhOwk8cGF0aCBjbGFzcz0ic3QxIiBkPSJNNi45OCAxNy4zNmEyLjk0IDIuOTQgMCAxIDEtNC4xNi00LjE2bDEuNzktMS43OSA0LjE2IDQuMTZ6bTYuMjMtMTQuNTRhMi45MyAyLjkzIDAgMCAxIDUgMi4wOCAzIDMgMCAwIDEtLjg2IDIuMDhsLTEuNzkgMS43OS00LjE1LTQuMTZ6bS0zLjEyIDEwLjQ2YTMuMiAzLjIgMCAwIDEtMy4xOS0zLjE5aDBhMy4yMSAzLjIxIDAgMCAxIDMuMTktMy4xOWgwYTMuMjEgMy4yMSAwIDAgMSAzLjE5IDMuMTloMGEzLjIgMy4yIDAgMCAxLTMuMTkgMy4xOXptNi44LTMuMTlsMS43OS0xLjc5QTQuODEgNC44MSAwIDAgMCAxNi41NzQuMTUzIDQuODEgNC44MSAwIDAgMCAxMS44OCAxLjVsLTEuNzkgMS43OS02LjggNi44LTEuNzkgMS43OWE0LjgxIDQuODEgMCAwIDAgMi4xMDYgOC4xNDdBNC44MSA0LjgxIDAgMCAwIDguMyAxOC42OGwxLjc5LTEuNzl6Ii8+JiN4YTs8L3N2Zz4=;imageBorder=#FF6666;" vertex="1" parent="1">
          <mxGeometry x="370" y="270" width="42" height="42" as="geometry" />
        </mxCell>
        <mxCell id="FR25FqnrDXU3jVZhp2Uy-2" value="3.2" style="edgeStyle=orthogonalEdgeStyle;rounded=0;orthogonalLoop=1;jettySize=auto;html=1;fontSize=11;startArrow=classic;startFill=1;entryX=0;entryY=0.5;entryDx=0;entryDy=0;exitX=0.985;exitY=0.547;exitDx=0;exitDy=0;exitPerimeter=0;" edge="1" parent="1" source="y2vlsPMpMl8sP8FiIYpK-15" target="FR25FqnrDXU3jVZhp2Uy-1">
          <mxGeometry relative="1" as="geometry">
            <mxPoint x="261.0279999999998" y="346" as="sourcePoint" />
            <mxPoint x="360" y="299.5" as="targetPoint" />
          </mxGeometry>
        </mxCell>
        <mxCell id="FR25FqnrDXU3jVZhp2Uy-4" value="" style="shape=image;imageAspect=0;aspect=fixed;verticalLabelPosition=bottom;verticalAlign=top;fontSize=13;image=data:image/png,iVBORw0KGgoAAAANSUhEUgAAAOEAAADhCAMAAAAJbSJIAAAAw1BMVEVxUqJyU6H///////3//v9yU6L///xyU59zUqH9//5wU6L9//1yVJ7///pyUqRwVKBfOpZeN5ZvTpxqSZ1dNJjp5PH59vxgPZb38vvVzeVaMJO4qs9pRZ1zUZxsTJ9kQJje1uqmksOUgbVfPZyDbqp/Y6vt5+/Qv+BaLpfi3vCCa61zUKZzTqTBs9iQeba0ptHDttPPxuCMb7RXNI+Xibqrm8jb0ethQJO3rc1lSpikkcSsnsff3euijsZ6Xavi1fDHv9blqzxIAAANTklEQVR4nO2dC3eiOBTHIQkkICQgIj4YtDrah62t7XS6bafd+f6fahNoqwj4auXR5b9zZs9RmMPPe3Nzk9wESapVq1atWrVq1apVq1atWrVqbRYtTnngyQXr+xMe34w1YU1YE9aENWFNWBPWhDVhTVhVQoUaOpUl5fsSyhjjJiFfAVhWQhqMf9r0GxMybzIFp5bzPQl1qpNeH0AA2j89NmPfj5Cy5mAoADUT9Hvyp6NN+QhZcNkBDQjVRgOAxRmVPxlwykfovyJuQQgBQioC595nI2q5CHXK/AvAbfcuaLqWRI3vQ0gUhwPyBvguhEzXxrPvQygHFKlaAy5NiCB0e58BLBnhZdAGCCK49FJuRtA9+yaEkqTYHQ2sq4HAla2TgxOc8hAyintDqCYIxUdPlnxwtCkRIbb6YKUNLsUDzyQ4FLBEhLI/F71gglALEziv4l6qyJJMm6iRtN+7FYc9WScHeWo5CCWDGr1zmOKhH4a8to3DsvByECqyYt8kHXQpHm0uHFxhG2LZmXNXTHYV70LA7LR0vbqEkuK1sw0YCXZbuLqEcq+7wUXfHXV00Ji/HIT+iPvhFmlIsw4ZD5eD0EJoqw15IFrc7Q9YBkJJt083xdEV3Tb3DzbFE2KpOQHI3I7H1bnDe0ebMhD2XAS2t8NQ1+O9s7fiCXX/BDTUDflMTE4FbcjsrV3hiha2QeW9KIsnHPTBbo0w0iueyXt5auGExEfZY4p18bRuaO8ZbAonfOAZ925RRqihgp97zrwVS6gT3UnOW2zW+Z1RJS+VrKs9AXm3f1mhSIMlB2YPmdLVGNp7JTbFErLB/iZEYHJZHUJiNXaPMu+EZteuDqF/v2PKvSINgmCf9ahiCe3p/oTc6v88VIWwOc/OuDPJNQTbViUIGTdhV433hhAhxGNr52ZEHSe4uF/wlBU21MSv8OtS33m0XyChRByE1vp7U9PA8LY1vqQ/yGz2aNlPU6CuXyRSN7Zzr1+gl1IeZ0B81AQboHPbogbBMsViJ4r02LtOcViVGjvnbsURUtZzo0WJpRD4bQeGIhu6jmVmYB0bzJq0k5n5tb9zXlMgIX6NPXQDIhMueuH1WJbo+7wa84M2XMvO0bS18/x3cYTEv44Riqka98z48cbFdD26FVNHAWrc1ip43XlNq8B2aLuxkS+EDeQQJYog1BkMHo1wJYa3yvEJiOc+De6mFSCka21LA/c+VQQVHj/86v9zooTZGf+AnZ2DWDzV4PnOmVtxhM5zfPaCh9Gw6MJg1O5HUzdD9hiFTOnnWkRqgNmu1afFEVq/4ZrnXQ3E50S5G/LAAk3Rk8ydyGvvpmsxF7wEpScctOP9HASvIY1ud4EprMt/AA3IUeQZXMUvRqDrlZ2webvWk0M0CCNL8ydQoShtM4GmwWHY3rDIYFcBTa1tlZuQSn4faLHowYNHSGh1l95rIjUqwpDifaeQQfSdBlEFEWJ5PIRaPGMbRoS2u/xctMSm4JBIgvDJwTvlpgURGthqr/XiICLElrvsGTjhKDRiCuHCwjv1+sUQKlR5BShO+Oal2HZX2hsAF+E/QJUEoWuTnWakiiEkhn+y/sSoHUUaZ3UwgaLBLm1erF8uAlOZvTRlkg0BFnbv9HE5y/+enWEelxKayCX2Uh4xh8lHfo5yzRXzmkM7ipfWn+Qg8cQpMSFT7On6I2vQjfo+3XoRoUaUuA3t6H5KQHKM2B/sAlgQoUH9xNwLp5oHuiGihyNddbjb/jsSjVCRJWYvUiamul6JIw2jyR4cAdXtUcoEExl4OvGtsKMgjF1OQHL9RnOtEhPqwTzxxGLa7aYXre9KDPM/0Uoo4ZlqJ2nB9zBbVsLHl+Qja2KEGOU1BHM8BYc2Migfa6CUylq021xNMYSS/5xiFaHnMyLpYh6KKjyzNgiVA/vfjGt3m6opqLfIWHOCGli0HCqWQIUtFUlnrddOckY40rxZXkLsLVKfGakN0H5qeU0+gMditqbliLLTjCXG0U7F3wX1FlY39ZnFwFAFnZt5YLdsa0B/dcNZxtSFcFhqQiUtpYmpPXWnm+tsGnz8VF5CYv3ZQghVCDbXK5abULbOt60bQqGNF/DEtNSEGwsUIrjNhFqpCZm9rR1uFwQvZSbMiKXfh1AfpPeH+2m3yvaiCK/2rlBI2nBe1v5QIsx/mO5cj5hJqC56dIfxUwGE2LAv0P5VJklC0Gn62xHzJ9Rp7xpou1Y9Z4vnsA00sreu5+dNqMiB91sMIj5vw3DE0d+6BSNfQoUYvtFJmZI4mBIO7WDz+kW+hEyxR+gL7Pcuk4872q8PGxtjvoS0dyMO9Ni7HjFLUcB62bjinSth0zoP28+X2fBt2/DNpsaYHyGTA7n9dXAxDVtypqfmaMNAHFryZUEmLjd7ZjE/Qt1HUIxrjyEI3VbxhHdu2IMdBRFBMMxqi/kQEn3mXW3YyPwVevLTz7HJh5Dqzdct0y6fFvR/pK6Y5uWl9nCfzT8H6XScmtvkZEN5Ahrm12VraTKB86NAG1p/jwkXCsH0esV8CBW7c1T7RXJTs7d8CKX1Eq9jCAGW1hDzIXSevy7bzhQET2kTN/kQet3j21AsIQ/k5KkL+RDyMcWnZ562SUPgt1cUoajkysNLz63iCKc5EJrhCKMgL21N4fG9FKh/iiO0hp+fPdwu2C2sHcre/pthD9FVcbHUuc+hHYJwQbEgQjo5fm/Bf8PXtOL2nEbA1j6nexwK2PZSAPMaW3zBmu828e6wwMxb9vtHj6UmuBkXR0j44OLYguBX6oppTqMnY5BD1vaaBpgToW6s7jE4ktrj1GrMfAgNOth48ONXCA7Ta4ZzijQk2OFUvU8SXg0KJFQIvtxS4vR5jYIiCWWjNUVHRYSApe8SyomQN8QuUo8639bxaOoZtbmtzARPIH1G2ESaBqNNo5m/gImA8ACIYObxg41hxkpwboRkkjWtHz77PVRTT7r+uKQB3DkEZvbqTj9jk1B+q2t2RhkU54JTak06ILuCQRw6+LvlkynI/hXmTanAdQuh1jD9bD2Nj817AQ6sDcV8HOukp9BgQwIPAzm96iQ/wtQTk0yx5PbcE8kIac07IYy29GZNA5opQvCwGW7jMnr91a+XNkba1MrYyZYfoXSR7PPDhjWywnU/Rn37nrtqYyUiQX4Lv8mdt97yW9l+ASkr5dy/u17hhNhrJwiRCtsTXw/XbjExsN96ERsNV8IJBO3FxV2Ao13NbIYHFykFHdwTnrN2I+ZoQy9Z2w3BNAjY29MbvB2xoGWcdKcfT+6ejh6sgEoyjbJqnWJ/kJLEi2LTwgnZOL7TVRXlPn8SL+bCkuNZ+mQ+ms9vJ741CNZPK2WXdnd9xbyBUOZ2yxzraS7jO/IE4OJMT/zykqRIuBk4QRBQRVESk0sGFuWbcU9tbCioybGehsRHwVAD1z2WFeHFxjUjo7YCE2sUL+yA4LQENlRIawpijzW3eANL3/kV3qCk1/ljiRn+69rkXfbei/wICfX7AEU77TT+v7a0LGEmjD/3zMg8y0NnTPwUHzYlcnP8J3zrVfSXCrK35ufopTodd94yZ9OE04dgWYdOuOsxPXtLKMGUMibFLjj7K+pLxT/G/+vamVW0+REaPH68fpxe1m3Ry2UzY7PAsh+y3wekS027NYifkCzZJ6KgDYkdfe6YZv48OXqppNPAj5LP9knPYGxZpYUHt7/PTyU7a1Oo3/s5PP9LY1/r8mDy1hhPrUuWuWU250p2xfOf+v2RtXbw+FvOuri1B03CbxFbSPmNCpN4quN49okrnBEp3FKrbbVpv5wOF/eyvWnLc/67ERzfTxys7qlQDIsg6FzdDjzPZ0wP7730LTt4WYh4omomWKyvD2Jn4NnO5vMx8iekcuLEccIA0niSE549j/78fb6dyFJAjMnoaiFStIbo/HhzS6zTM102qK5v3NRdwI4SbqB1Ql0EfVWMI+D6EBeK9M5EYvygJggxoRsicFGEKSJkh8paETJ5n7D3W0qqQ6ghzbWqSijXhBFhhb1UVnYg5NE2tSKoJqwQIeSEuCasMiEA391L+SXVJdypxw8Jq+qlH4QobaH446MqE1IAxYQEgm4LmWDttSVdg0NqsJFRIVsJQnnGMxaVs7m21U/sj3p1xMZFjf+pMKHV0biZwPAM61YbxhfhFhZxjDbnU2Fq/Wg1CINwxmVxxojh38dXSiGd4VngiIW3oXgpcEUJf/gPJzdzjygyka2VFwVwhz0V7yPBwTj8fl+68hDquvxoBdF8i/O0YkAteqcMkcLvD3qvc0kI+YMwPZqQwHbnY5UXwptoxUUyZu/fV5NQGIdfGRLQ4GXFS6MNdxyOvH9fTcJVEdZz+Xied388C7iyDn7jeHkJqXE5Aujt3HkLH/Qu7nITMkZ7rvp2NsvY+IaE2MDOXEyPQoTs1D2TVScUap0Dk/cU9we9proShE3a4WGmm3kSRPUJWdP79Xw7/nQbLC+hRGXfb9LPN8LSEn6lasKasCasCWvCmrAm/D8QHh3w/yFaoIpmr1WrVq1atWrVqlWrVq1atcqm/wAATjZXbist1QAAAABJRU5ErkJggg==;" vertex="1" parent="1">
          <mxGeometry x="370" y="348" width="45" height="45" as="geometry" />
        </mxCell>
        <mxCell id="FR25FqnrDXU3jVZhp2Uy-5" value="3.3" style="edgeStyle=orthogonalEdgeStyle;rounded=0;orthogonalLoop=1;jettySize=auto;html=1;fontSize=11;startArrow=classic;startFill=1;exitX=0.971;exitY=0.547;exitDx=0;exitDy=0;exitPerimeter=0;" edge="1" parent="1" source="y2vlsPMpMl8sP8FiIYpK-15" target="FR25FqnrDXU3jVZhp2Uy-4">
          <mxGeometry relative="1" as="geometry">
            <mxPoint x="263" y="362" as="sourcePoint" />
            <mxPoint x="380" y="301" as="targetPoint" />
          </mxGeometry>
        </mxCell>
        <mxCell id="FR25FqnrDXU3jVZhp2Uy-8" value="" style="group;labelPosition=left;verticalLabelPosition=bottom;align=right;verticalAlign=top;" vertex="1" connectable="0" parent="1">
          <mxGeometry x="250" y="480" width="454" height="120" as="geometry" />
        </mxCell>
        <mxCell id="y2vlsPMpMl8sP8FiIYpK-2" value="Service" style="rounded=1;whiteSpace=wrap;html=1;fillColor=none;sketch=1;labelPosition=left;verticalLabelPosition=bottom;align=right;verticalAlign=top;fontStyle=1" vertex="1" parent="FR25FqnrDXU3jVZhp2Uy-8">
          <mxGeometry width="454" height="120" as="geometry" />
        </mxCell>
        <mxCell id="y2vlsPMpMl8sP8FiIYpK-26" value="" style="edgeStyle=orthogonalEdgeStyle;rounded=0;orthogonalLoop=1;jettySize=auto;html=1;" edge="1" parent="FR25FqnrDXU3jVZhp2Uy-8" target="y2vlsPMpMl8sP8FiIYpK-29">
          <mxGeometry relative="1" as="geometry">
            <mxPoint x="74" y="60" as="sourcePoint" />
          </mxGeometry>
        </mxCell>
        <mxCell id="y2vlsPMpMl8sP8FiIYpK-29" value="Read API" style="aspect=fixed;html=1;points=[];align=center;image;fontSize=12;image=img/lib/azure2/compute/Azure_Spring_Cloud.svg;imageBackground=#CCCCFF;fontStyle=1" vertex="1" parent="FR25FqnrDXU3jVZhp2Uy-8">
          <mxGeometry x="144" y="28" width="68" height="64" as="geometry" />
        </mxCell>
        <mxCell id="y2vlsPMpMl8sP8FiIYpK-30" value="" style="verticalLabelPosition=bottom;html=1;verticalAlign=top;align=center;strokeColor=none;fillColor=#00BEF2;shape=mxgraph.azure.website_generic;pointerEvents=1;fontColor=default;" vertex="1" parent="FR25FqnrDXU3jVZhp2Uy-8">
          <mxGeometry x="249.76" y="20" width="103.24" height="80" as="geometry" />
        </mxCell>
        <mxCell id="y2vlsPMpMl8sP8FiIYpK-28" style="edgeStyle=orthogonalEdgeStyle;rounded=0;orthogonalLoop=1;jettySize=auto;html=1;entryX=0;entryY=0.5;entryDx=0;entryDy=0;entryPerimeter=0;startArrow=classic;startFill=1;" edge="1" parent="FR25FqnrDXU3jVZhp2Uy-8" source="y2vlsPMpMl8sP8FiIYpK-29" target="y2vlsPMpMl8sP8FiIYpK-30">
          <mxGeometry relative="1" as="geometry" />
        </mxCell>
        <mxCell id="y2vlsPMpMl8sP8FiIYpK-37" style="edgeStyle=orthogonalEdgeStyle;rounded=0;orthogonalLoop=1;jettySize=auto;html=1;entryX=0.837;entryY=0.373;entryDx=0;entryDy=0;entryPerimeter=0;exitX=0;exitY=0.5;exitDx=0;exitDy=0;" edge="1" parent="FR25FqnrDXU3jVZhp2Uy-8" source="y2vlsPMpMl8sP8FiIYpK-38" target="y2vlsPMpMl8sP8FiIYpK-30">
          <mxGeometry relative="1" as="geometry">
            <mxPoint x="339" y="240" as="sourcePoint" />
          </mxGeometry>
        </mxCell>
        <mxCell id="y2vlsPMpMl8sP8FiIYpK-38" value="Users" style="aspect=fixed;perimeter=ellipsePerimeter;html=1;align=center;shadow=0;dashed=0;spacingTop=3;image;image=img/lib/active_directory/user_accounts.svg;" vertex="1" parent="FR25FqnrDXU3jVZhp2Uy-8">
          <mxGeometry x="384" y="28" width="50" height="48.5" as="geometry" />
        </mxCell>
        <mxCell id="y2vlsPMpMl8sP8FiIYpK-60" value="" style="group" vertex="1" connectable="0" parent="FR25FqnrDXU3jVZhp2Uy-8">
          <mxGeometry x="15" y="20" width="85.39999999999998" height="91" as="geometry" />
        </mxCell>
        <mxCell id="y2vlsPMpMl8sP8FiIYpK-61" value="Member Dev DB&lt;br style=&quot;font-size: 8px;&quot;&gt;(Oracle)" style="shape=cylinder3;whiteSpace=wrap;html=1;boundedLbl=1;backgroundOutline=1;size=15;fillColor=#fff2cc;strokeColor=#d6b656;fontSize=8;fontStyle=1;labelPosition=center;verticalLabelPosition=middle;align=center;verticalAlign=middle;" vertex="1" parent="y2vlsPMpMl8sP8FiIYpK-60">
          <mxGeometry y="41" width="85.4" height="50" as="geometry" />
        </mxCell>
        <mxCell id="y2vlsPMpMl8sP8FiIYpK-62" value="data table" style="sketch=0;html=1;aspect=fixed;strokeColor=none;shadow=0;align=center;verticalAlign=bottom;fillColor=#3B8DF1;shape=mxgraph.gcp2.view_list;labelPosition=center;verticalLabelPosition=top;fontStyle=1" vertex="1" parent="y2vlsPMpMl8sP8FiIYpK-60">
          <mxGeometry x="16.399999999999977" width="48.6" height="60" as="geometry" />
        </mxCell>
      </root>
    </mxGraphModel>
  </diagram>
</mxfile>
